<?xml version="1.0" encoding="iso-8859-1"?>
<!-- Generator: Adobe Illustrator 19.0.0, SVG Export Plug-In . SVG Version: 6.00 Build 0)  -->
<svg version="1.1" id="Capa_1" xmlns="http://www.w3.org/2000/svg" xmlns:xlink="http://www.w3.org/1999/xlink" x="0px" y="0px"
	 viewBox="0 0 512.005 512.005" style="enable-background:new 0 0 512.005 512.005;" xml:space="preserve">
<g>
	<g>
		<path d="M461.44,103.623l9.295-8.461v-0.004c10.427-9.524,11.173-25.693,1.667-36.137c-9.506-10.444-25.674-11.218-36.134-1.73
			L271.563,207.219c-21.108-6.735-44.154,0.872-57.105,18.849c-12.952,17.977-12.872,42.245,0.199,60.135
			c13.071,17.891,36.166,25.344,57.229,18.47c21.063-6.874,35.315-26.517,35.316-48.673c-0.045-3.643-0.472-7.27-1.275-10.823
			l40.56-36.919c18.088,34.224,15.316,75.726-7.164,107.239s-60.819,47.645-99.067,41.682c-38.248-5.963-69.857-32.999-81.677-69.86
			c12.516-5.382,20.625-17.699,20.623-31.323s-8.115-25.939-20.632-31.318c13.464-42.432,52.915-71.211,97.432-71.077
			c4.713,0,8.533-3.821,8.533-8.533s-3.82-8.533-8.533-8.533c-52.989-0.143-99.673,34.807-114.461,85.69
			c-17.369,1.715-30.606,16.323-30.606,33.777s13.237,32.062,30.606,33.777c12.981,44.184,50.218,76.963,95.692,84.234
			c45.474,7.272,91.076-12.259,117.188-50.192c26.113-37.933,28.08-87.502,5.055-127.385l38.419-34.97
			c30.791,45.657,37.305,103.487,17.442,154.849c-13.795-2.458-27.681,3.819-34.949,15.799c-7.268,11.98-6.421,27.196,2.132,38.295
			c-49.813,55.16-129.607,71.72-197.255,40.936c-67.648-30.784-107.579-101.825-98.71-175.618s64.495-133.349,137.511-147.228
			c5.897,16.13,22.865,25.361,39.61,21.552c16.746-3.81,28.049-19.474,26.388-36.567c-1.662-17.093-15.77-30.287-32.936-30.8
			c-17.166-0.513-32.038,11.814-34.718,28.777c-80.763,14.649-142.632,80.09-152.73,161.547s33.92,160.024,108.662,193.95
			s162.859,15.335,217.527-45.893c15.607,6.973,33.965,1.274,42.879-13.312c8.914-14.586,5.612-33.523-7.712-44.231
			c22.462-57.678,14.813-122.745-20.413-173.641l38.133-34.709c30.151,40.749,46.347,90.14,46.181,140.83
			c0.056,93.983-55.021,179.258-140.71,217.861s-186.053,23.352-256.407-38.962c2.967-5.092,4.548-10.872,4.584-16.766
			C102.38,399.291,87.111,384.022,68.268,384c-4.202,0.022-8.363,0.828-12.27,2.375C30.529,347.669,16.992,302.334,17.068,256
			C17.216,124.102,124.104,17.215,256.002,17.067c4.713,0,8.533-3.82,8.533-8.533S260.715,0,256.002,0
			c-141.318,0.16-255.84,114.682-256,256c-0.081,49.932,14.59,98.775,42.17,140.398c-5.156,6.072-8.002,13.769-8.036,21.735
			c0.021,18.842,15.291,34.112,34.133,34.133c6.254-0.026,12.378-1.787,17.69-5.087c75.285,67.076,182.946,83.677,274.94,42.396
			C452.893,448.295,512.062,356.832,512.002,256C512.182,201.058,494.43,147.558,461.44,103.623z M145.068,273.067
			c-9.422-0.009-17.057-7.645-17.067-17.067c0-9.426,7.641-17.067,17.067-17.067c9.426,0,17.067,7.641,17.067,17.067
			S154.494,273.067,145.068,273.067z M256.002,59.733c9.426,0,17.067,7.641,17.067,17.067s-7.641,17.067-17.067,17.067
			s-17.067-7.641-17.067-17.067C238.944,67.378,246.58,59.743,256.002,59.733z M409.602,366.933
			c-9.426,0-17.067-7.641-17.067-17.067s7.641-17.067,17.067-17.067s17.067,7.641,17.067,17.067
			C426.659,359.288,419.024,366.924,409.602,366.933z M256.002,290.133c-18.73,0.014-33.966-15.079-34.13-33.808
			c-0.164-18.729,14.807-34.085,33.534-34.399l-4.017,3.656c-7.656,6.97-10.359,17.866-6.85,27.606
			c3.51,9.741,12.541,16.408,22.883,16.894c0.408,0.021,0.821,0.029,1.229,0.029c6.367,0.011,12.507-2.368,17.204-6.667l3.884-3.535
			C287.791,277.086,273.287,290.079,256.002,290.133z M274.364,250.825c-1.662,1.54-3.879,2.339-6.142,2.213
			c-3.448-0.16-6.461-2.383-7.63-5.631c-1.17-3.248-0.266-6.881,2.288-9.203L447.756,69.917c1.567-1.433,3.614-2.227,5.737-2.225
			c0.138,0,0.275,0.004,0.413,0.012c3.447,0.162,6.458,2.385,7.626,5.633c1.169,3.247,0.265,6.879-2.289,9.201L274.364,250.825z
			 M68.268,435.2c-9.422-0.009-17.057-7.645-17.067-17.067c0-9.426,7.641-17.067,17.067-17.067s17.067,7.641,17.067,17.067
			S77.694,435.2,68.268,435.2z"/>
	</g>
</g>
<g>
</g>
<g>
</g>
<g>
</g>
<g>
</g>
<g>
</g>
<g>
</g>
<g>
</g>
<g>
</g>
<g>
</g>
<g>
</g>
<g>
</g>
<g>
</g>
<g>
</g>
<g>
</g>
<g>
</g>
</svg>
