<?xml version="1.0" encoding="utf-8"?>
<!-- Generator: Adobe Illustrator 19.2.1, SVG Export Plug-In . SVG Version: 6.00 Build 0)  -->
<svg version="1.1" id="Layer_1" xmlns="http://www.w3.org/2000/svg" xmlns:xlink="http://www.w3.org/1999/xlink" x="0px" y="0px"
	 viewBox="0 0 1265.2 628.3" style="enable-background:new 0 0 1265.2 628.3;" xml:space="preserve">
<style type="text/css">
	.st0{fill:#8D8A70;}
	.st1{fill:#7C7C7C;}
	.st2{fill:#9A977A;}
	.st3{fill:#767676;}
	.st4{fill:#949175;}
	.st5{fill:#C6C6C6;}
	.st6{fill:#EDE9BC;}
	.st7{fill:#37839D;}
	.st8{fill:#32768E;}
	.st9{fill:#4FBBE0;}
	.st10{fill:#5C822A;}
	.st11{fill:#537625;}
	.st12{fill:#83BA3B;}
	.st13{fill:#00602D;}
	.st14{fill:#005729;}
	.st15{fill:#008941;}
	.st16{fill:#004A7C;}
	.st17{fill:#004370;}
	.st18{fill:#006AB0;}
</style>
<g id="base-ground">
	<g>
		<polygon class="st0" points="692.2,44.6 692.1,47.2 196.4,278.3 196.5,275.7 		"/>
		<polygon class="st1" points="715.2,138.8 715,141.4 608.8,86 608.9,83.4 		"/>
		<polygon class="st1" points="853,210.7 852.9,213.3 745.2,157.2 745.3,154.6 		"/>
		<polygon class="st1" points="990.1,282.3 990,284.9 881.6,228.3 881.7,225.7 		"/>
		<polygon class="st2" points="55.6,257 55.4,259.6 0,242.2 0.2,239.6 		"/>
		<polygon class="st1" points="1127.3,353.8 1127.1,356.4 1018,299.5 1018.1,296.9 		"/>
		<polygon class="st3" points="1159.9,338.6 1159.7,341.2 1127.1,356.4 1127.3,353.8 		"/>
		<polygon class="st0" points="141,301.6 140.8,304.2 87.4,329.1 87.5,326.5 		"/>
		<polygon class="st4" points="87.5,326.5 87.4,329.1 1.9,284.6 2.1,282 		"/>
		<polygon class="st3" points="745.3,154.6 745.2,157.2 332.8,349.5 332.9,346.9 		"/>
		<polygon class="st1" points="332.9,346.9 332.8,349.5 302.6,333.7 302.8,331.1 		"/>
		<polygon class="st3" points="881.7,225.7 881.6,228.3 469.2,420.6 469.3,418 		"/>
		<polygon class="st1" points="469.3,418 469.2,420.6 440.5,405.6 440.6,403 		"/>
		<polygon class="st3" points="1018.1,296.9 1018,299.5 605.6,491.8 605.8,489.2 		"/>
		<polygon class="st1" points="605.8,489.2 605.6,491.8 577.6,477.2 577.7,474.5 		"/>
		<polygon class="st5" points="641.5,68.2 1159.9,338.6 1127.3,353.8 1018.1,296.9 605.8,489.2 577.7,474.5 990.1,282.3 
			881.7,225.7 469.3,418 440.6,403 853,210.7 745.3,154.6 332.9,346.9 302.8,331.1 715.2,138.8 608.9,83.4 		"/>
		<polygon class="st4" points="659.3,572 659.2,574.6 140.8,304.2 141,301.6 		"/>
		<polygon class="st6" points="56,213.6 111.4,231 606.8,0 692.2,44.6 196.5,275.7 302.8,331.1 332.9,346.9 440.6,403 469.3,418 
			577.7,474.5 605.8,489.2 714.9,546.1 1127.3,353.8 1159.9,338.6 1209.9,315.3 1265.2,344.1 661.1,625.7 605.9,596.9 659.3,572 
			141,301.6 87.5,326.5 2.1,282 55.6,257 0.2,239.6 		"/>
		<polygon class="st4" points="661.1,625.7 661,628.3 605.7,599.5 605.9,596.9 		"/>
		<polygon class="st0" points="1265.2,344.1 1265,346.7 661,628.3 661.1,625.7 		"/>
	</g>
</g>
<g id="landmarks-lots">
	<g id="m4p15">
		<polygon class="st7" points="1066.5,323.1 1066.3,325.7 1043.4,336.4 1043.6,333.8 		"/>
		<polygon class="st8" points="1043.6,333.8 1043.4,336.4 994.6,310.9 994.8,308.3 		"/>
		<polygon class="st9" points="1017.7,297.6 1066.5,323.1 1043.6,333.8 994.8,308.3 		"/>
	</g>
	<g id="m4p14">
		<polygon class="st7" points="1038.7,336 1038.6,338.6 1015.7,349.3 1015.8,346.7 		"/>
		<polygon class="st8" points="1015.8,346.7 1015.7,349.3 966.8,323.9 967,321.3 		"/>
		<polygon class="st9" points="989.9,310.6 1038.7,336 1015.8,346.7 967,321.3 		"/>
	</g>
	<g id="m4p13">
		<polygon class="st7" points="1010.3,349.3 1010.1,351.9 987.9,362.3 988,359.7 		"/>
		<polygon class="st8" points="988,359.7 987.9,362.3 939.1,336.8 939.2,334.2 		"/>
		<polygon class="st9" points="961.5,323.9 1010.3,349.3 988,359.7 939.2,334.2 		"/>
	</g>
	<g id="m4p12">
		<polygon class="st10" points="982.5,362.3 982.3,364.9 960.8,374.9 961,372.3 		"/>
		<polygon class="st11" points="961,372.3 960.8,374.9 912,349.4 912.2,346.8 		"/>
		<polygon class="st12" points="933.7,336.8 982.5,362.3 961,372.3 912.2,346.8 		"/>
	</g>
	<g id="m4p11">
		<polygon class="st10" points="955.4,374.9 955.3,377.5 935.1,386.9 935.3,384.3 		"/>
		<polygon class="st11" points="935.3,384.3 935.1,386.9 886.3,361.4 886.5,358.8 		"/>
		<polygon class="st12" points="906.6,349.4 955.4,374.9 935.3,384.3 886.5,358.8 		"/>
	</g>
	<g id="m4p10">
		<polygon class="st10" points="929.7,386.9 929.6,389.5 906,400.5 906.1,397.9 		"/>
		<polygon class="st11" points="906.1,397.9 906,400.5 857.2,375 857.3,372.4 		"/>
		<polygon class="st12" points="880.9,361.4 929.7,386.9 906.1,397.9 857.3,372.4 		"/>
	</g>
	<g id="m4p9">
		<polygon class="st10" points="900.6,400.5 900.4,403.1 878.9,413.1 879,410.5 		"/>
		<polygon class="st11" points="879,410.5 878.9,413.1 830.1,387.6 830.2,385 		"/>
		<polygon class="st12" points="851.8,375 900.6,400.5 879,410.5 830.2,385 		"/>
	</g>
	<g id="m4p8">
		<polygon class="st10" points="873.5,413.1 873.3,415.7 851.8,425.7 852,423.1 		"/>
		<polygon class="st11" points="852,423.1 851.8,425.7 803,400.3 803.2,397.7 		"/>
		<polygon class="st12" points="824.7,387.6 873.5,413.1 852,423.1 803.2,397.7 		"/>
	</g>
	<g id="m4p7">
		<polygon class="st10" points="846.4,425.7 846.3,428.3 823.4,439 823.5,436.4 		"/>
		<polygon class="st11" points="823.5,436.4 823.4,439 774.5,413.5 774.7,410.9 		"/>
		<polygon class="st12" points="797.6,400.3 846.4,425.7 823.5,436.4 774.7,410.9 		"/>
	</g>
	<g id="m4p6">
		<polygon class="st13" points="818,439 817.8,441.6 796.3,451.6 796.4,449 		"/>
		<polygon class="st14" points="796.4,449 796.3,451.6 747.5,426.2 747.6,423.6 		"/>
		<polygon class="st15" points="769.1,413.5 818,439 796.4,449 747.6,423.6 		"/>
	</g>
	<g id="m4p5">
		<polygon class="st16" points="790.9,451.6 790.7,454.2 767.8,464.9 768,462.3 		"/>
		<polygon class="st17" points="768,462.3 767.8,464.9 719,439.4 719.1,436.8 		"/>
		<polygon class="st18" points="742.1,426.1 790.9,451.6 768,462.3 719.1,436.8 		"/>
	</g>
	<g id="m4p4">
		<polygon class="st16" points="763.1,464.6 763,467.2 742.1,476.9 742.3,474.3 		"/>
		<polygon class="st17" points="742.3,474.3 742.1,476.9 693.3,451.4 693.5,448.8 		"/>
		<polygon class="st18" points="714.3,439.1 763.1,464.6 742.3,474.3 693.5,448.8 		"/>
	</g>
	<g id="m4p3">
		<polygon class="st16" points="736.7,476.9 736.6,479.5 714.3,489.8 714.5,487.2 		"/>
		<polygon class="st17" points="714.5,487.2 714.3,489.8 665.5,464.4 665.7,461.8 		"/>
		<polygon class="st18" points="687.9,451.4 736.7,476.9 714.5,487.2 665.7,461.8 		"/>
	</g>
	<g id="m4p2">
		<polygon class="st16" points="709,489.8 708.8,492.4 685.9,503.1 686,500.5 		"/>
		<polygon class="st17" points="686,500.5 685.9,503.1 637.1,477.6 637.2,475 		"/>
		<polygon class="st18" points="660.1,464.4 709,489.8 686,500.5 637.2,475 		"/>
	</g>
	<g id="m4p1">
		<polygon class="st16" points="681.2,502.8 681,505.4 658.8,515.7 659,513.1 		"/>
		<polygon class="st17" points="659,513.1 658.8,515.7 610,490.3 610.1,487.7 		"/>
		<polygon class="st18" points="632.4,477.3 681.2,502.8 659,513.1 610.1,487.7 		"/>
	</g>
	<g id="m4p16">
		<polygon class="st7" points="1122.5,352.3 1122.3,354.9 1099.4,365.6 1099.6,363 		"/>
		<polygon class="st8" points="1099.6,363 1099.4,365.6 1051.3,340.5 1051.5,337.9 		"/>
		<polygon class="st9" points="1074.4,327.2 1122.5,352.3 1099.6,363 1051.5,337.9 		"/>
	</g>
	<g id="m4p17">
		<polygon class="st7" points="1094.7,365.3 1094.6,367.9 1071.7,378.5 1071.8,375.9 		"/>
		<polygon class="st8" points="1071.8,375.9 1071.7,378.5 1023.6,353.5 1023.7,350.8 		"/>
		<polygon class="st9" points="1046.6,340.2 1094.7,365.3 1071.8,375.9 1023.7,350.8 		"/>
	</g>
	<g id="m4p18">
		<polygon class="st7" points="1066.3,378.5 1066.1,381.1 1043.9,391.5 1044.1,388.9 		"/>
		<polygon class="st8" points="1044.1,388.9 1043.9,391.5 995.8,366.4 995.9,363.8 		"/>
		<polygon class="st9" points="1018.2,353.4 1066.3,378.5 1044.1,388.9 995.9,363.8 		"/>
	</g>
	<g id="m4p19">
		<polygon class="st7" points="1038.5,391.5 1038.3,394.1 1016.8,404.1 1017,401.5 		"/>
		<polygon class="st8" points="1017,401.5 1016.8,404.1 968.7,379 968.9,376.4 		"/>
		<polygon class="st9" points="990.4,366.4 1038.5,391.5 1017,401.5 968.9,376.4 		"/>
	</g>
	<g id="m4p20">
		<polygon class="st7" points="1011.4,404.1 1011.3,406.7 991.1,416.1 991.3,413.5 		"/>
		<polygon class="st8" points="991.3,413.5 991.1,416.1 943,391 943.2,388.4 		"/>
		<polygon class="st9" points="963.3,379 1011.4,404.1 991.3,413.5 943.2,388.4 		"/>
	</g>
	<g id="m4p21">
		<polygon class="st7" points="985.7,416.1 985.6,418.7 962,429.7 962.1,427.1 		"/>
		<polygon class="st8" points="962.1,427.1 962,429.7 913.9,404.6 914,402 		"/>
		<polygon class="st9" points="937.6,391 985.7,416.1 962.1,427.1 914,402 		"/>
	</g>
	<g id="m4p22">
		<polygon class="st7" points="956.6,429.7 956.4,432.3 934.9,442.3 935,439.7 		"/>
		<polygon class="st8" points="935,439.7 934.9,442.3 886.8,417.2 887,414.6 		"/>
		<polygon class="st9" points="908.5,404.6 956.6,429.7 935,439.7 887,414.6 		"/>
	</g>
	<g id="m4p23">
		<polygon class="st7" points="929.5,442.3 929.3,444.9 907.8,455 908,452.3 		"/>
		<polygon class="st8" points="908,452.3 907.8,455 859.7,429.9 859.9,427.3 		"/>
		<polygon class="st9" points="881.4,417.2 929.5,442.3 908,452.3 859.9,427.3 		"/>
	</g>
	<g id="m4p24">
		<polygon class="st7" points="902.4,454.9 902.3,457.5 879.4,468.2 879.5,465.6 		"/>
		<polygon class="st8" points="879.5,465.6 879.4,468.2 831.3,443.1 831.4,440.5 		"/>
		<polygon class="st9" points="854.3,429.8 902.4,454.9 879.5,465.6 831.4,440.5 		"/>
	</g>
	<g id="m4p25">
		<polygon class="st13" points="874,468.2 873.8,470.8 852.3,480.9 852.4,478.2 		"/>
		<polygon class="st14" points="852.4,478.2 852.3,480.9 804.2,455.8 804.3,453.1 		"/>
		<polygon class="st15" points="825.8,443.1 874,468.2 852.4,478.2 804.3,453.1 		"/>
	</g>
	<g id="m4p26">
		<polygon class="st16" points="846.9,480.8 846.7,483.4 823.8,494.1 824,491.5 		"/>
		<polygon class="st17" points="824,491.5 823.8,494.1 775.7,469 775.9,466.4 		"/>
		<polygon class="st18" points="798.8,455.7 846.9,480.8 824,491.5 775.9,466.4 		"/>
	</g>
	<g id="m4p27">
		<polygon class="st16" points="819.1,493.8 819,496.4 798.1,506.1 798.3,503.5 		"/>
		<polygon class="st17" points="798.3,503.5 798.1,506.1 750,481 750.2,478.4 		"/>
		<polygon class="st18" points="771,468.7 819.1,493.8 798.3,503.5 750.2,478.4 		"/>
	</g>
	<g id="m4p28">
		<polygon class="st16" points="792.7,506.1 792.6,508.7 770.3,519 770.5,516.4 		"/>
		<polygon class="st17" points="770.5,516.4 770.3,519 722.3,494 722.4,491.4 		"/>
		<polygon class="st18" points="744.6,481 792.7,506.1 770.5,516.4 722.4,491.4 		"/>
	</g>
	<g id="m4p29">
		<polygon class="st16" points="765,519 764.8,521.6 741.9,532.3 742,529.7 		"/>
		<polygon class="st17" points="742,529.7 741.9,532.3 693.8,507.2 693.9,504.6 		"/>
		<polygon class="st18" points="716.8,493.9 765,519 742,529.7 693.9,504.6 		"/>
	</g>
	<g id="m4p30">
		<polygon class="st16" points="737.2,532 737,534.6 714.8,545 715,542.3 		"/>
		<polygon class="st17" points="715,542.3 714.8,545 666.7,519.9 666.9,517.3 		"/>
		<polygon class="st18" points="689.1,506.9 737.2,532 715,542.3 666.9,517.3 		"/>
	</g>
	<g id="m3p15">
		<polygon class="st7" points="929.4,251.6 929.2,254.2 906.3,264.9 906.5,262.3 		"/>
		<polygon class="st8" points="906.5,262.3 906.3,264.9 858.2,239.8 858.4,237.2 		"/>
		<polygon class="st9" points="881.3,226.5 929.4,251.6 906.5,262.3 858.4,237.2 		"/>
	</g>
	<g id="m3p14">
		<polygon class="st7" points="901.6,264.5 901.5,267.1 878.5,277.8 878.7,275.2 		"/>
		<polygon class="st8" points="878.7,275.2 878.5,277.8 830.4,252.7 830.6,250.1 		"/>
		<polygon class="st9" points="853.5,239.4 901.6,264.5 878.7,275.2 830.6,250.1 		"/>
	</g>
	<g id="m3p13">
		<polygon class="st7" points="873.2,277.8 873,280.4 850.8,290.8 850.9,288.1 		"/>
		<polygon class="st8" points="850.9,288.1 850.8,290.8 802.7,265.7 802.8,263.1 		"/>
		<polygon class="st9" points="825,252.7 873.2,277.8 850.9,288.1 802.8,263.1 		"/>
	</g>
	<g id="m3p12">
		<polygon class="st10" points="845.4,290.8 845.2,293.4 823.7,303.4 823.8,300.8 		"/>
		<polygon class="st11" points="823.8,300.8 823.7,303.4 775.6,278.3 775.8,275.7 		"/>
		<polygon class="st12" points="797.3,265.6 845.4,290.8 823.8,300.8 775.8,275.7 		"/>
	</g>
	<g id="m3p11">
		<polygon class="st10" points="818.3,303.4 818.1,306 798,315.4 798.2,312.8 		"/>
		<polygon class="st11" points="798.2,312.8 798,315.4 749.9,290.3 750.1,287.7 		"/>
		<polygon class="st12" points="770.2,278.3 818.3,303.4 798.2,312.8 750.1,287.7 		"/>
	</g>
	<g id="m3p10">
		<polygon class="st10" points="792.6,315.4 792.5,318 768.8,329 769,326.4 		"/>
		<polygon class="st11" points="769,326.4 768.8,329 720.8,303.9 720.9,301.3 		"/>
		<polygon class="st12" points="744.5,290.3 792.6,315.4 769,326.4 720.9,301.3 		"/>
	</g>
	<g id="m3p9">
		<polygon class="st10" points="763.5,329 763.3,331.5 741.8,341.6 741.9,339 		"/>
		<polygon class="st11" points="741.9,339 741.8,341.6 693.7,316.5 693.8,313.9 		"/>
		<polygon class="st12" points="715.3,303.9 763.5,329 741.9,339 693.8,313.9 		"/>
	</g>
	<g id="m3p8">
		<polygon class="st10" points="736.4,341.6 736.2,344.2 714.7,354.2 714.8,351.6 		"/>
		<polygon class="st11" points="714.8,351.6 714.7,354.2 666.6,329.1 666.7,326.5 		"/>
		<polygon class="st12" points="688.3,316.5 736.4,341.6 714.8,351.6 666.7,326.5 		"/>
	</g>
	<g id="m3p7">
		<polygon class="st10" points="709.3,354.2 709.1,356.8 686.2,367.5 686.4,364.9 		"/>
		<polygon class="st11" points="686.4,364.9 686.2,367.5 638.1,342.4 638.3,339.8 		"/>
		<polygon class="st12" points="661.2,329.1 709.3,354.2 686.4,364.9 638.3,339.8 		"/>
	</g>
	<g id="m3p6">
		<polygon class="st13" points="680.8,367.5 680.7,370.1 659.2,380.1 659.3,377.5 		"/>
		<polygon class="st14" points="659.3,377.5 659.2,380.1 611,355 611.2,352.4 		"/>
		<polygon class="st15" points="632.7,342.4 680.8,367.5 659.3,377.5 611.2,352.4 		"/>
	</g>
	<g id="m3p5">
		<polygon class="st16" points="653.8,380.1 653.6,382.7 630.7,393.4 630.8,390.8 		"/>
		<polygon class="st17" points="630.8,390.8 630.7,393.4 582.6,368.3 582.7,365.7 		"/>
		<polygon class="st18" points="605.7,355 653.8,380.1 630.8,390.8 582.7,365.7 		"/>
	</g>
	<g id="m3p4">
		<polygon class="st16" points="626,393 625.8,395.6 605,405.4 605.2,402.8 		"/>
		<polygon class="st17" points="605.2,402.8 605,405.4 556.9,380.3 557,377.7 		"/>
		<polygon class="st18" points="577.9,368 626,393 605.2,402.8 557,377.7 		"/>
	</g>
	<g id="m3p3">
		<polygon class="st16" points="599.6,405.4 599.5,408 577.2,418.3 577.4,415.7 		"/>
		<polygon class="st17" points="577.4,415.7 577.2,418.3 529.1,393.2 529.3,390.6 		"/>
		<polygon class="st18" points="551.5,380.3 599.6,405.4 577.4,415.7 529.3,390.6 		"/>
	</g>
	<g id="m3p2">
		<polygon class="st16" points="571.8,418.3 571.7,420.9 548.8,431.6 548.9,429 		"/>
		<polygon class="st17" points="548.9,429 548.8,431.6 500.7,406.5 500.8,403.9 		"/>
		<polygon class="st18" points="523.7,393.2 571.8,418.3 548.9,429 500.8,403.9 		"/>
	</g>
	<g id="m3p1">
		<polygon class="st16" points="544.1,431.3 543.9,433.9 521.7,444.2 521.8,441.6 		"/>
		<polygon class="st17" points="521.8,441.6 521.7,444.2 473.6,419.1 473.7,416.5 		"/>
		<polygon class="st18" points="496,406.2 544.1,431.3 521.8,441.6 473.7,416.5 		"/>
	</g>
	<g id="m3p16">
		<polygon class="st7" points="984.7,280.4 984.5,283 961.6,293.7 961.8,291.1 		"/>
		<polygon class="st8" points="961.8,291.1 961.6,293.7 914.2,269 914.4,266.4 		"/>
		<polygon class="st9" points="937.3,255.7 984.7,280.4 961.8,291.1 914.4,266.4 		"/>
	</g>
	<g id="m3p17">
		<polygon class="st7" points="956.9,293.4 956.7,296 933.8,306.6 934,304 		"/>
		<polygon class="st8" points="934,304 933.8,306.6 886.5,281.9 886.6,279.3 		"/>
		<polygon class="st9" points="909.5,268.6 956.9,293.4 934,304 886.6,279.3 		"/>
	</g>
	<g id="m3p18">
		<polygon class="st7" points="928.4,306.6 928.3,309.2 906,319.6 906.2,317 		"/>
		<polygon class="st8" points="906.2,317 906,319.6 858.7,294.9 858.8,292.3 		"/>
		<polygon class="st9" points="881,281.9 928.4,306.6 906.2,317 858.8,292.3 		"/>
	</g>
	<g id="m3p19">
		<polygon class="st10" points="900.7,319.6 900.5,322.2 879,332.2 879.1,329.6 		"/>
		<polygon class="st11" points="879.1,329.6 879,332.2 831.6,307.5 831.8,304.9 		"/>
		<polygon class="st12" points="853.3,294.9 900.7,319.6 879.1,329.6 831.8,304.9 		"/>
	</g>
	<g id="m3p20">
		<polygon class="st10" points="873.6,332.2 873.4,334.8 853.3,344.2 853.4,341.6 		"/>
		<polygon class="st11" points="853.4,341.6 853.3,344.2 805.9,319.5 806.1,316.9 		"/>
		<polygon class="st12" points="826.2,307.5 873.6,332.2 853.4,341.6 806.1,316.9 		"/>
	</g>
	<g id="m3p21">
		<polygon class="st10" points="847.9,344.2 847.7,346.8 824.1,357.8 824.3,355.2 		"/>
		<polygon class="st11" points="824.3,355.2 824.1,357.8 776.8,333.1 776.9,330.5 		"/>
		<polygon class="st12" points="800.5,319.5 847.9,344.2 824.3,355.2 776.9,330.5 		"/>
	</g>
	<g id="m3p22">
		<polygon class="st10" points="818.7,357.8 818.6,360.4 797,370.4 797.2,367.8 		"/>
		<polygon class="st11" points="797.2,367.8 797,370.4 749.7,345.7 749.8,343.1 		"/>
		<polygon class="st12" points="771.3,333.1 818.7,357.8 797.2,367.8 749.8,343.1 		"/>
	</g>
	<g id="m3p23">
		<polygon class="st10" points="791.7,370.4 791.5,373 770,383 770.1,380.4 		"/>
		<polygon class="st11" points="770.1,380.4 770,383 722.6,358.3 722.7,355.7 		"/>
		<polygon class="st12" points="744.3,345.7 791.7,370.4 770.1,380.4 722.7,355.7 		"/>
	</g>
	<g id="m3p24">
		<polygon class="st10" points="764.6,383 764.4,385.6 741.5,396.3 741.7,393.7 		"/>
		<polygon class="st11" points="741.7,393.7 741.5,396.3 694.1,371.6 694.3,369 		"/>
		<polygon class="st12" points="717.2,358.3 764.6,383 741.7,393.7 694.3,369 		"/>
	</g>
	<g id="m3p25">
		<polygon class="st13" points="736.1,396.3 736,398.9 714.4,409 714.6,406.3 		"/>
		<polygon class="st14" points="714.6,406.3 714.4,409 667,384.2 667.2,381.6 		"/>
		<polygon class="st15" points="688.7,371.6 736.1,396.3 714.6,406.3 667.2,381.6 		"/>
	</g>
	<g id="m3p26">
		<polygon class="st16" points="709,408.9 708.9,411.5 686,422.2 686.1,419.6 		"/>
		<polygon class="st17" points="686.1,419.6 686,422.2 638.6,397.5 638.7,394.9 		"/>
		<polygon class="st18" points="661.7,384.2 709,408.9 686.1,419.6 638.7,394.9 		"/>
	</g>
	<g id="m3p27">
		<polygon class="st16" points="681.3,421.9 681.1,424.5 660.3,434.2 660.4,431.6 		"/>
		<polygon class="st17" points="660.4,431.6 660.3,434.2 612.9,409.5 613,406.9 		"/>
		<polygon class="st18" points="633.9,397.2 681.3,421.9 660.4,431.6 613,406.9 		"/>
	</g>
	<g id="m3p28">
		<polygon class="st16" points="654.9,434.2 654.7,436.8 632.5,447.1 632.7,444.5 		"/>
		<polygon class="st17" points="632.7,444.5 632.5,447.1 585.1,422.4 585.3,419.8 		"/>
		<polygon class="st18" points="607.5,409.5 654.9,434.2 632.7,444.5 585.3,419.8 		"/>
	</g>
	<g id="m3p29">
		<polygon class="st16" points="627.1,447.1 627,449.7 604,460.4 604.2,457.8 		"/>
		<polygon class="st17" points="604.2,457.8 604,460.4 556.7,435.7 556.8,433.1 		"/>
		<polygon class="st18" points="579.7,422.4 627.1,447.1 604.2,457.8 556.8,433.1 		"/>
	</g>
	<g id="m3p30">
		<polygon class="st16" points="599.3,460.1 599.2,462.7 577,473 577.1,470.4 		"/>
		<polygon class="st17" points="577.1,470.4 577,473 529.6,448.3 529.7,445.7 		"/>
		<polygon class="st18" points="552,435.4 599.3,460.1 577.1,470.4 529.7,445.7 		"/>
	</g>
	<g id="m2p15">
		<polygon class="st7" points="793.7,180.8 793.5,183.4 770.6,194.1 770.8,191.5 		"/>
		<polygon class="st8" points="770.8,191.5 770.6,194.1 721.8,168.6 722,166 		"/>
		<polygon class="st9" points="744.9,155.3 793.7,180.8 770.8,191.5 722,166 		"/>
	</g>
	<g id="m2p14">
		<polygon class="st7" points="765.9,193.8 765.8,196.4 742.9,207 743,204.4 		"/>
		<polygon class="st8" points="743,204.4 742.9,207 694,181.6 694.2,179 		"/>
		<polygon class="st9" points="717.1,168.3 765.9,193.8 743,204.4 694.2,179 		"/>
	</g>
	<g id="m2p13">
		<polygon class="st7" points="737.5,207 737.3,209.6 715.1,220 715.2,217.4 		"/>
		<polygon class="st8" points="715.2,217.4 715.1,220 666.3,194.5 666.4,191.9 		"/>
		<polygon class="st9" points="688.6,181.6 737.5,207 715.2,217.4 666.4,191.9 		"/>
	</g>
	<g id="m2p12">
		<polygon class="st10" points="709.7,220 709.5,222.6 688,232.6 688.2,230 		"/>
		<polygon class="st11" points="688.2,230 688,232.6 639.2,207.1 639.3,204.5 		"/>
		<polygon class="st12" points="660.9,194.5 709.7,220 688.2,230 639.3,204.5 		"/>
	</g>
	<g id="m2p11">
		<polygon class="st10" points="682.6,232.6 682.5,235.2 662.3,244.6 662.5,242 		"/>
		<polygon class="st11" points="662.5,242 662.3,244.6 613.5,219.1 613.7,216.5 		"/>
		<polygon class="st12" points="633.8,207.1 682.6,232.6 662.5,242 613.7,216.5 		"/>
	</g>
	<g id="m2p10">
		<polygon class="st10" points="656.9,244.6 656.8,247.2 633.2,258.2 633.3,255.6 		"/>
		<polygon class="st11" points="633.3,255.6 633.2,258.2 584.3,232.7 584.5,230.1 		"/>
		<polygon class="st12" points="608.1,219.1 656.9,244.6 633.3,255.6 584.5,230.1 		"/>
	</g>
	<g id="m2p9">
		<polygon class="st10" points="627.8,258.2 627.6,260.8 606.1,270.8 606.2,268.2 		"/>
		<polygon class="st11" points="606.2,268.2 606.1,270.8 557.3,245.4 557.4,242.7 		"/>
		<polygon class="st12" points="578.9,232.7 627.8,258.2 606.2,268.2 557.4,242.7 		"/>
	</g>
	<g id="m2p8">
		<polygon class="st10" points="600.7,270.8 600.5,273.4 579,283.4 579.2,280.8 		"/>
		<polygon class="st11" points="579.2,280.8 579,283.4 530.2,258 530.3,255.4 		"/>
		<polygon class="st12" points="551.9,245.3 600.7,270.8 579.2,280.8 530.3,255.4 		"/>
	</g>
	<g id="m2p7">
		<polygon class="st10" points="573.6,283.4 573.5,286 550.5,296.7 550.7,294.1 		"/>
		<polygon class="st11" points="550.7,294.1 550.5,296.7 501.7,271.3 501.9,268.6 		"/>
		<polygon class="st12" points="524.8,258 573.6,283.4 550.7,294.1 501.9,268.6 		"/>
	</g>
	<g id="m2p6">
		<polygon class="st10" points="545.1,296.7 545,299.3 523.5,309.3 523.6,306.7 		"/>
		<polygon class="st11" points="523.6,306.7 523.5,309.3 474.6,283.9 474.8,281.3 		"/>
		<polygon class="st12" points="496.3,271.2 545.1,296.7 523.6,306.7 474.8,281.3 		"/>
	</g>
	<g id="m2p5">
		<polygon class="st10" points="518.1,309.3 517.9,311.9 495,322.6 495.2,320 		"/>
		<polygon class="st11" points="495.2,320 495,322.6 446.2,297.1 446.3,294.5 		"/>
		<polygon class="st12" points="469.3,283.9 518.1,309.3 495.2,320 446.3,294.5 		"/>
	</g>
	<g id="m2p4">
		<polygon class="st10" points="490.3,322.3 490.1,324.9 469.3,334.6 469.5,332 		"/>
		<polygon class="st11" points="469.5,332 469.3,334.6 420.5,309.1 420.6,306.5 		"/>
		<polygon class="st12" points="441.5,296.8 490.3,322.3 469.5,332 420.6,306.5 		"/>
	</g>
	<g id="m2p3">
		<polygon class="st7" points="463.9,334.6 463.8,337.2 441.5,347.5 441.7,344.9 		"/>
		<polygon class="st8" points="441.7,344.9 441.5,347.5 392.7,322.1 392.9,319.5 		"/>
		<polygon class="st9" points="415.1,309.1 463.9,334.6 441.7,344.9 392.9,319.5 		"/>
	</g>
	<g id="m2p2">
		<polygon class="st7" points="436.1,347.5 436,350.1 413.1,360.8 413.2,358.2 		"/>
		<polygon class="st8" points="413.2,358.2 413.1,360.8 364.3,335.4 364.4,332.7 		"/>
		<polygon class="st9" points="387.3,322.1 436.1,347.5 413.2,358.2 364.4,332.7 		"/>
	</g>
	<g id="m2p1">
		<polygon class="st7" points="408.4,360.5 408.2,363.1 386,373.4 386.1,370.8 		"/>
		<polygon class="st8" points="386.1,370.8 386,373.4 337.2,348 337.3,345.4 		"/>
		<polygon class="st9" points="359.5,335 408.4,360.5 386.1,370.8 337.3,345.4 		"/>
	</g>
	<g id="m2p16">
		<polygon class="st7" points="847.5,208.9 847.4,211.5 824.5,222.2 824.6,219.6 		"/>
		<polygon class="st8" points="824.6,219.6 824.5,222.2 777.1,197.5 777.2,194.9 		"/>
		<polygon class="st9" points="800.2,184.2 847.5,208.9 824.6,219.6 777.2,194.9 		"/>
	</g>
	<g id="m2p17">
		<polygon class="st7" points="819.8,221.8 819.6,224.4 796.7,235.1 796.9,232.5 		"/>
		<polygon class="st8" points="796.9,232.5 796.7,235.1 749.3,210.4 749.5,207.8 		"/>
		<polygon class="st9" points="772.4,197.1 819.8,221.8 796.9,232.5 749.5,207.8 		"/>
	</g>
	<g id="m2p18">
		<polygon class="st7" points="791.3,235.1 791.2,237.7 768.9,248.1 769.1,245.5 		"/>
		<polygon class="st8" points="769.1,245.5 768.9,248.1 721.5,223.4 721.7,220.8 		"/>
		<polygon class="st9" points="743.9,210.4 791.3,235.1 769.1,245.5 721.7,220.8 		"/>
	</g>
	<g id="m2p19">
		<polygon class="st10" points="763.5,248.1 763.4,250.7 741.9,260.7 742,258.1 		"/>
		<polygon class="st11" points="742,258.1 741.9,260.7 694.5,236 694.6,233.4 		"/>
		<polygon class="st12" points="716.2,223.3 763.5,248.1 742,258.1 694.6,233.4 		"/>
	</g>
	<g id="m2p20">
		<polygon class="st10" points="736.5,260.7 736.3,263.3 716.2,272.7 716.3,270.1 		"/>
		<polygon class="st11" points="716.3,270.1 716.2,272.7 668.8,248 668.9,245.4 		"/>
		<polygon class="st12" points="689.1,236 736.5,260.7 716.3,270.1 668.9,245.4 		"/>
	</g>
	<g id="m2p21">
		<polygon class="st10" points="710.8,272.7 710.6,275.3 687,286.3 687.2,283.7 		"/>
		<polygon class="st11" points="687.2,283.7 687,286.3 639.6,261.6 639.8,259 		"/>
		<polygon class="st12" points="663.4,247.9 710.8,272.7 687.2,283.7 639.8,259 		"/>
	</g>
	<g id="m2p22">
		<polygon class="st10" points="681.6,286.3 681.5,288.9 659.9,298.9 660.1,296.3 		"/>
		<polygon class="st11" points="660.1,296.3 659.9,298.9 612.5,274.2 612.7,271.6 		"/>
		<polygon class="st12" points="634.2,261.5 681.6,286.3 660.1,296.3 612.7,271.6 		"/>
	</g>
	<g id="m2p23">
		<polygon class="st10" points="654.5,298.9 654.4,301.5 632.8,311.5 633,308.9 		"/>
		<polygon class="st11" points="633,308.9 632.8,311.5 585.5,286.8 585.6,284.2 		"/>
		<polygon class="st12" points="607.2,274.2 654.5,298.9 633,308.9 585.6,284.2 		"/>
	</g>
	<g id="m2p24">
		<polygon class="st10" points="627.5,311.5 627.3,314.1 604.4,324.8 604.5,322.2 		"/>
		<polygon class="st11" points="604.5,322.2 604.4,324.8 557,300.1 557.2,297.5 		"/>
		<polygon class="st12" points="580.1,286.8 627.5,311.5 604.5,322.2 557.2,297.5 		"/>
	</g>
	<g id="m2p25">
		<polygon class="st10" points="599,324.8 598.8,327.4 577.3,337.4 577.5,334.8 		"/>
		<polygon class="st11" points="577.5,334.8 577.3,337.4 529.9,312.7 530.1,310.1 		"/>
		<polygon class="st12" points="551.6,300.1 599,324.8 577.5,334.8 530.1,310.1 		"/>
	</g>
	<g id="m2p26">
		<polygon class="st10" points="571.9,337.4 571.8,340 548.8,350.7 549,348.1 		"/>
		<polygon class="st11" points="549,348.1 548.8,350.7 501.5,326 501.6,323.4 		"/>
		<polygon class="st12" points="524.5,312.7 571.9,337.4 549,348.1 501.6,323.4 		"/>
	</g>
	<g id="m2p27">
		<polygon class="st10" points="544.1,350.4 544,353 523.2,362.7 523.3,360.1 		"/>
		<polygon class="st11" points="523.3,360.1 523.2,362.7 475.8,338 475.9,335.4 		"/>
		<polygon class="st12" points="496.8,325.6 544.1,350.4 523.3,360.1 475.9,335.4 		"/>
	</g>
	<g id="m2p28">
		<polygon class="st7" points="517.8,362.7 517.6,365.3 495.4,375.6 495.5,373 		"/>
		<polygon class="st8" points="495.5,373 495.4,375.6 448,350.9 448.2,348.3 		"/>
		<polygon class="st9" points="470.4,338 517.8,362.7 495.5,373 448.2,348.3 		"/>
	</g>
	<g id="m2p29">
		<polygon class="st7" points="490,375.6 489.8,378.2 466.9,388.9 467.1,386.3 		"/>
		<polygon class="st8" points="467.1,386.3 466.9,388.9 419.5,364.2 419.7,361.6 		"/>
		<polygon class="st9" points="442.6,350.9 490,375.6 467.1,386.3 419.7,361.6 		"/>
	</g>
	<g id="m2p30">
		<polygon class="st7" points="462.2,388.6 462.1,391.2 439.8,401.5 440,398.9 		"/>
		<polygon class="st8" points="440,398.9 439.8,401.5 392.5,376.8 392.6,374.2 		"/>
		<polygon class="st9" points="414.8,363.9 462.2,388.6 440,398.9 392.6,374.2 		"/>
	</g>
	<g id="m1p15">
		<polygon class="st7" points="657.3,109.7 657.1,112.3 634.2,122.9 634.4,120.3 		"/>
		<polygon class="st8" points="634.4,120.3 634.2,122.9 586.1,97.8 586.3,95.2 		"/>
		<polygon class="st9" points="609.2,84.6 657.3,109.7 634.4,120.3 586.3,95.2 		"/>
	</g>
	<g id="m1p14">
		<polygon class="st7" points="629.5,122.6 629.4,125.2 606.5,135.9 606.6,133.3 		"/>
		<polygon class="st8" points="606.6,133.3 606.5,135.9 558.3,110.8 558.5,108.2 		"/>
		<polygon class="st9" points="581.4,97.5 629.5,122.6 606.6,133.3 558.5,108.2 		"/>
	</g>
	<g id="m1p13">
		<polygon class="st7" points="601,135.9 600.9,138.5 578.7,148.8 578.8,146.2 		"/>
		<polygon class="st8" points="578.8,146.2 578.7,148.8 530.6,123.8 530.7,121.1 		"/>
		<polygon class="st9" points="553,110.8 601,135.9 578.8,146.2 530.7,121.1 		"/>
	</g>
	<g id="m1p12">
		<polygon class="st7" points="573.3,148.8 573.1,151.4 551.6,161.5 551.8,158.9 		"/>
		<polygon class="st8" points="551.8,158.9 551.6,161.5 503.5,136.4 503.6,133.8 		"/>
		<polygon class="st9" points="525.2,123.7 573.3,148.8 551.8,158.9 503.6,133.8 		"/>
	</g>
	<g id="m1p11">
		<polygon class="st7" points="546.2,161.4 546,164.1 525.9,173.4 526.1,170.8 		"/>
		<polygon class="st8" points="526.1,170.8 525.9,173.4 477.8,148.4 478,145.8 		"/>
		<polygon class="st9" points="498.1,136.4 546.2,161.4 526.1,170.8 478,145.8 		"/>
	</g>
	<g id="m1p10">
		<polygon class="st7" points="520.5,173.4 520.4,176 496.8,187 496.9,184.4 		"/>
		<polygon class="st8" points="496.9,184.4 496.8,187 448.6,161.9 448.8,159.3 		"/>
		<polygon class="st9" points="472.4,148.3 520.5,173.4 496.9,184.4 448.8,159.3 		"/>
	</g>
	<g id="m1p9">
		<polygon class="st7" points="491.4,187 491.2,189.6 469.7,199.7 469.8,197.1 		"/>
		<polygon class="st8" points="469.8,197.1 469.7,199.7 421.6,174.6 421.7,172 		"/>
		<polygon class="st9" points="443.3,161.9 491.4,187 469.8,197.1 421.7,172 		"/>
	</g>
	<g id="m1p8">
		<polygon class="st7" points="464.3,199.6 464.1,202.3 442.6,212.3 442.8,209.7 		"/>
		<polygon class="st8" points="442.8,209.7 442.6,212.3 394.5,187.2 394.6,184.6 		"/>
		<polygon class="st9" points="416.2,174.6 464.3,199.6 442.8,209.7 394.6,184.6 		"/>
	</g>
	<g id="m1p7">
		<polygon class="st7" points="437.2,212.3 437,214.9 414.1,225.6 414.3,223 		"/>
		<polygon class="st8" points="414.3,223 414.1,225.6 366,200.5 366.2,197.9 		"/>
		<polygon class="st9" points="389.1,187.2 437.2,212.3 414.3,223 366.2,197.9 		"/>
	</g>
	<g id="m1p6">
		<polygon class="st7" points="408.7,225.6 408.6,228.2 387.1,238.2 387.2,235.6 		"/>
		<polygon class="st8" points="387.2,235.6 387.1,238.2 339,213.1 339.1,210.5 		"/>
		<polygon class="st9" points="360.6,200.5 408.7,225.6 387.2,235.6 339.1,210.5 		"/>
	</g>
	<g id="m1p5">
		<polygon class="st7" points="381.7,238.2 381.5,240.8 358.6,251.5 358.8,248.9 		"/>
		<polygon class="st8" points="358.8,248.9 358.6,251.5 310.5,226.4 310.6,223.8 		"/>
		<polygon class="st9" points="333.6,213.1 381.7,238.2 358.8,248.9 310.6,223.8 		"/>
	</g>
	<g id="m1p4">
		<polygon class="st7" points="353.9,251.1 353.7,253.7 332.9,263.4 333.1,260.8 		"/>
		<polygon class="st8" points="333.1,260.8 332.9,263.4 284.8,238.4 285,235.8 		"/>
		<polygon class="st9" points="305.8,226 353.9,251.1 333.1,260.8 285,235.8 		"/>
	</g>
	<g id="m1p3">
		<polygon class="st7" points="327.5,263.4 327.4,266 305.1,276.4 305.3,273.8 		"/>
		<polygon class="st8" points="305.3,273.8 305.1,276.4 257,251.3 257.2,248.7 		"/>
		<polygon class="st9" points="279.4,238.3 327.5,263.4 305.3,273.8 257.2,248.7 		"/>
	</g>
	<g id="m1p2">
		<polygon class="st7" points="299.7,276.4 299.6,279 276.7,289.7 276.8,287.1 		"/>
		<polygon class="st8" points="276.8,287.1 276.7,289.7 228.6,264.6 228.7,262 		"/>
		<polygon class="st9" points="251.6,251.3 299.7,276.4 276.8,287.1 228.7,262 		"/>
	</g>
	<g id="m1p1">
		<polygon class="st7" points="272,289.3 271.8,291.9 249.6,302.3 249.8,299.7 		"/>
		<polygon class="st8" points="249.8,299.7 249.6,302.3 201.5,277.2 201.6,274.6 		"/>
		<polygon class="st9" points="223.9,264.2 272,289.3 249.8,299.7 201.6,274.6 		"/>
	</g>
	<g id="m1p16">
		<polygon class="st7" points="709.7,137 709.5,139.6 686.6,150.3 686.8,147.7 		"/>
		<polygon class="st8" points="686.8,147.7 686.6,150.3 640,125.9 640.1,123.3 		"/>
		<polygon class="st9" points="663,112.6 709.7,137 686.8,147.7 640.1,123.3 		"/>
	</g>
	<g id="m1p17">
		<polygon class="st7" points="681.9,149.9 681.8,152.5 658.9,163.2 659,160.6 		"/>
		<polygon class="st8" points="659,160.6 658.9,163.2 612.2,138.9 612.3,136.3 		"/>
		<polygon class="st9" points="635.3,125.6 681.9,149.9 659,160.6 612.3,136.3 		"/>
	</g>
	<g id="m1p18">
		<polygon class="st7" points="653.5,163.2 653.3,165.8 631.1,176.2 631.2,173.6 		"/>
		<polygon class="st8" points="631.2,173.6 631.1,176.2 584.4,151.8 584.6,149.2 		"/>
		<polygon class="st9" points="606.8,138.9 653.5,163.2 631.2,173.6 584.6,149.2 		"/>
	</g>
	<g id="m1p19">
		<polygon class="st10" points="625.7,176.2 625.5,178.8 604,188.8 604.2,186.2 		"/>
		<polygon class="st11" points="604.2,186.2 604,188.8 557.3,164.5 557.5,161.9 		"/>
		<polygon class="st12" points="579,151.8 625.7,176.2 604.2,186.2 557.5,161.9 		"/>
	</g>
	<g id="m1p20">
		<polygon class="st10" points="598.6,188.8 598.5,191.4 578.3,200.8 578.5,198.2 		"/>
		<polygon class="st11" points="578.5,198.2 578.3,200.8 531.7,176.4 531.8,173.8 		"/>
		<polygon class="st12" points="552,164.4 598.6,188.8 578.5,198.2 531.8,173.8 		"/>
	</g>
	<g id="m1p21">
		<polygon class="st10" points="572.9,200.8 572.8,203.4 549.2,214.4 549.3,211.8 		"/>
		<polygon class="st11" points="549.3,211.8 549.2,214.4 502.5,190 502.6,187.4 		"/>
		<polygon class="st12" points="526.3,176.4 572.9,200.8 549.3,211.8 502.6,187.4 		"/>
	</g>
	<g id="m1p22">
		<polygon class="st10" points="543.8,214.4 543.6,217 522.1,227 522.2,224.4 		"/>
		<polygon class="st11" points="522.2,224.4 522.1,227 475.4,202.7 475.6,200.1 		"/>
		<polygon class="st12" points="497.1,190 543.8,214.4 522.2,224.4 475.6,200.1 		"/>
	</g>
	<g id="m1p23">
		<polygon class="st10" points="516.7,227 516.5,229.6 495,239.6 495.2,237 		"/>
		<polygon class="st11" points="495.2,237 495,239.6 448.4,215.3 448.5,212.7 		"/>
		<polygon class="st12" points="470,202.6 516.7,227 495.2,237 448.5,212.7 		"/>
	</g>
	<g id="m1p24">
		<polygon class="st10" points="489.6,239.6 489.5,242.2 466.5,252.9 466.7,250.3 		"/>
		<polygon class="st11" points="466.7,250.3 466.5,252.9 419.9,228.6 420,226 		"/>
		<polygon class="st12" points="442.9,215.3 489.6,239.6 466.7,250.3 420,226 		"/>
	</g>
	<g id="m1p25">
		<polygon class="st10" points="461.1,252.9 461,255.5 439.5,265.5 439.6,262.9 		"/>
		<polygon class="st11" points="439.6,262.9 439.5,265.5 392.8,241.2 393,238.6 		"/>
		<polygon class="st12" points="414.5,228.6 461.1,252.9 439.6,262.9 393,238.6 		"/>
	</g>
	<g id="m1p26">
		<polygon class="st10" points="434.1,265.5 433.9,268.1 411,278.8 411.2,276.2 		"/>
		<polygon class="st11" points="411.2,276.2 411,278.8 364.3,254.5 364.5,251.9 		"/>
		<polygon class="st12" points="387.4,241.2 434.1,265.5 411.2,276.2 364.5,251.9 		"/>
	</g>
	<g id="m1p27">
		<polygon class="st10" points="406.3,278.5 406.1,281.1 385.3,290.8 385.5,288.2 		"/>
		<polygon class="st11" points="385.5,288.2 385.3,290.8 338.7,266.4 338.8,263.8 		"/>
		<polygon class="st12" points="359.6,254.1 406.3,278.5 385.5,288.2 338.8,263.8 		"/>
	</g>
	<g id="m1p28">
		<polygon class="st7" points="379.9,290.8 379.8,293.4 357.5,303.7 357.7,301.1 		"/>
		<polygon class="st8" points="357.7,301.1 357.5,303.7 310.9,279.4 311,276.8 		"/>
		<polygon class="st9" points="333.3,266.4 379.9,290.8 357.7,301.1 311,276.8 		"/>
	</g>
	<g id="m1p29">
		<polygon class="st7" points="352.1,303.7 352,306.3 329.1,317 329.2,314.4 		"/>
		<polygon class="st8" points="329.2,314.4 329.1,317 282.4,292.7 282.6,290.1 		"/>
		<polygon class="st9" points="305.5,279.4 352.1,303.7 329.2,314.4 282.6,290.1 		"/>
	</g>
	<g id="m1p30">
		<polygon class="st7" points="324.4,316.7 324.2,319.3 302,329.6 302.1,327 		"/>
		<polygon class="st8" points="302.1,327 302,329.6 255.3,305.3 255.5,302.7 		"/>
		<polygon class="st9" points="277.7,292.3 324.4,316.7 302.1,327 255.5,302.7 		"/>
	</g>
</g>
</svg>
