<?xml version="1.0" encoding="utf-8"?>
<!-- Generator: Adobe Illustrator 19.2.1, SVG Export Plug-In . SVG Version: 6.00 Build 0)  -->
<svg version="1.1" id="Layer_1" xmlns="http://www.w3.org/2000/svg" xmlns:xlink="http://www.w3.org/1999/xlink" x="0px" y="0px"
	 viewBox="0 0 1265 625.7" style="enable-background:new 0 0 1265 625.7;" xml:space="preserve">
<style type="text/css">
	.st0{fill:#C6C6C6;}
	.st1{fill:#EDE9BC;}
	.st2{fill:#2A6FA1;}
	.st3{fill:#256492;}
	.st4{fill:#4FBBE0;}
	.st5{fill:#37839D;}
	.st6{fill:#32768E;}
	.st7{fill:#3B9EE6;}
	.st8{fill:#8F9416;}
	.st9{fill:#818514;}
	.st10{fill:#83BA3B;}
	.st11{fill:#5C822A;}
	.st12{fill:#537625;}
	.st13{fill:#CBD21F;}
	.st14{fill:#5B5B5B;}
	.st15{fill:#525252;}
	.st16{fill:#646464;}
	.st17{fill:#6F6F6F;}
	.st18{fill:#818181;}
	.st19{fill:#9E9E9E;}
	.st20{fill:#848484;}
	.st21{fill:#777777;}
	.st22{fill:#6D6D6D;}
	.st23{fill:#636363;}
	.st24{fill:#9C9C9C;}
	.st25{fill:#BCBCBC;}
	.st26{fill:#2C2C2C;}
	.st27{fill:#282828;}
	.st28{fill:#3E3E3E;}
	.st29{fill:#383838;}
	.st30{fill:#3F3F3F;}
	.st31{fill:#585858;}
	.st32{fill:#272727;}
	.st33{fill:#232323;}
	.st34{fill:#393939;}
	.st35{fill:#343434;}
	.st36{fill:#373737;}
</style>
<title>mapa-colonias-unidas-mz-1</title>
<polygon class="st0" points="641.4,68.2 1159.7,338.6 1127.1,353.8 1018,296.9 605.6,489.2 577.6,474.5 990,282.3 881.6,225.7 
	469.2,418 440.5,403 852.9,210.7 745.2,154.6 332.8,346.9 302.6,331.1 715,138.8 608.8,83.4 "/>
<polygon class="st1" points="55.8,213.6 111.2,231 606.7,0 692.1,44.6 196.4,275.7 302.6,331.1 332.8,346.9 440.5,403 469.2,418 
	577.6,474.5 605.6,489.2 714.7,546.1 1127.1,353.8 1159.7,338.6 1209.7,315.3 1265,344.1 661,625.7 605.7,596.9 659.2,572 
	140.8,301.6 87.4,326.5 1.9,282 55.4,257 0,239.6 "/>
<g>
	<polygon class="st2" points="610.2,82.3 610,84.9 587.1,95.6 587.3,93 	"/>
	<polygon class="st3" points="658.3,107.4 658.1,110 610,84.9 610.2,82.3 	"/>
	<polygon class="st4" points="610.2,82.3 658.3,107.4 635.4,118.1 587.3,93 	"/>
	<polygon class="st5" points="658.3,107.4 658.1,110 635.2,120.7 635.4,118.1 	"/>
	<polygon class="st6" points="635.4,118.1 635.2,120.7 587.1,95.6 587.3,93 	"/>
	<polygon class="st3" points="635.5,120.9 635.3,123.5 580.8,95 580.9,92.4 	"/>
	<polygon class="st2" points="663.9,107.6 663.8,110.2 635.3,123.5 635.5,120.9 	"/>
	<path class="st7" d="M580.9,92.4l28.5-13.3l54.6,28.5l-28.5,13.3L580.9,92.4z M658.3,107.4l-48.1-25.1l-22.9,10.6l48.2,25.1
		L658.3,107.4"/>
</g>
<g>
	<polygon class="st2" points="582.4,95.3 582.3,97.9 559.3,108.6 559.5,105.9 	"/>
	<polygon class="st3" points="630.5,120.4 630.4,123 582.3,97.9 582.4,95.3 	"/>
	<polygon class="st2" points="554,108.5 553.8,111.1 531.6,121.5 531.7,118.9 	"/>
	<polygon class="st4" points="582.4,95.3 630.5,120.4 607.6,131 559.5,105.9 	"/>
	<polygon class="st5" points="630.5,120.4 630.4,123 607.5,133.6 607.6,131 	"/>
	<polygon class="st6" points="607.6,131 607.5,133.6 559.3,108.6 559.5,105.9 	"/>
	<polygon class="st3" points="607.7,133.8 607.5,136.4 553,108 553.1,105.4 	"/>
	<path class="st7" d="M553.1,105.4l27.8-13l54.5,28.5l-27.8,13L553.1,105.4z M630.5,120.4l-48.1-25.1l-22.9,10.7l48.1,25.1
		L630.5,120.4"/>
	<polygon class="st2" points="635.5,120.9 635.3,123.5 607.5,136.4 607.7,133.8 	"/>
	<polygon class="st3" points="602,133.6 601.9,136.2 553.8,111.1 554,108.5 	"/>
	<polygon class="st4" points="554,108.5 602,133.6 579.8,144 531.7,118.9 	"/>
	<polygon class="st5" points="602,133.6 601.9,136.2 579.7,146.6 579.8,144 	"/>
	<polygon class="st6" points="579.8,144 579.7,146.6 531.6,121.5 531.7,118.9 	"/>
	<polygon class="st2" points="607.7,133.8 607.5,136.4 579.8,149.4 579.9,146.8 	"/>
	<path class="st7" d="M525.4,118.3l27.8-12.9l54.6,28.5l-27.8,12.9L525.4,118.3z M602,133.6l-48.1-25.1l-22.2,10.4l48.1,25
		L602,133.6"/>
	<polygon class="st3" points="579.9,146.8 579.8,149.4 525.2,120.9 525.4,118.3 	"/>
</g>
<g>
	<polygon class="st2" points="664,110.4 663.9,113 641,123.7 641.1,121.1 	"/>
	<polygon class="st3" points="710.7,134.7 710.5,137.4 663.9,113 664,110.4 	"/>
	<polygon class="st4" points="664,110.4 710.7,134.7 687.8,145.4 641.1,121.1 	"/>
	<polygon class="st5" points="710.7,134.7 710.5,137.4 687.6,148 687.8,145.4 	"/>
	<polygon class="st6" points="687.8,145.4 687.6,148 641,123.7 641.1,121.1 	"/>
	<polygon class="st3" points="687.9,148.2 687.7,150.8 635.3,123.5 635.5,120.9 	"/>
	<polygon class="st2" points="716.3,134.9 716.2,137.6 687.7,150.8 687.9,148.2 	"/>
	<path class="st7" d="M635.4,120.9l28.5-13.3l52.4,27.3l-28.5,13.3L635.4,120.9z M710.6,134.7L664,110.4l-22.9,10.7l46.7,24.3
		L710.6,134.7"/>
</g>
<g>
	<polygon class="st2" points="636.3,123.3 636.1,126 613.2,136.6 613.3,134 	"/>
	<polygon class="st3" points="682.9,147.7 682.8,150.3 636.1,126 636.3,123.3 	"/>
	<polygon class="st4" points="636.3,123.3 682.9,147.7 660,158.4 613.3,134 	"/>
	<polygon class="st5" points="682.9,147.7 682.8,150.3 659.9,161 660,158.4 	"/>
	<polygon class="st6" points="660,158.4 659.9,161 613.2,136.6 613.3,134 	"/>
	<polygon class="st3" points="660.1,161.2 660,163.8 607.5,136.4 607.7,133.8 	"/>
	<polygon class="st2" points="687.9,148.2 687.7,150.8 660,163.8 660.1,161.2 	"/>
	<path class="st7" d="M607.7,133.8l27.8-13l52.4,27.3l-27.8,13L607.7,133.8z M682.9,147.7l-46.7-24.3L613.3,134l46.7,24.3
		L682.9,147.7"/>
</g>
<g>
	<polygon class="st2" points="607.8,136.6 607.6,139.2 585.4,149.6 585.6,147 	"/>
	<polygon class="st3" points="654.5,161 654.3,163.6 607.6,139.2 607.8,136.6 	"/>
	<polygon class="st4" points="607.8,136.6 654.5,161 632.2,171.3 585.6,147 	"/>
	<polygon class="st5" points="654.5,161 654.3,163.6 632.1,173.9 632.2,171.3 	"/>
	<polygon class="st6" points="632.2,171.3 632.1,173.9 585.4,149.6 585.6,147 	"/>
	<polygon class="st3" points="632.3,174.1 632.2,176.7 579.8,149.4 579.9,146.8 	"/>
	<polygon class="st2" points="660.1,161.2 660,163.8 632.2,176.7 632.3,174.1 	"/>
	<path class="st7" d="M579.9,146.8l27.8-12.9l52.4,27.3l-27.8,13L579.9,146.8z M654.4,160.9l-46.7-24.3l-22.2,10.3l46.7,24.3
		L654.4,160.9"/>
</g>
<g>
	<polygon class="st2" points="526.2,121.5 526,124.1 504.5,134.1 504.6,131.5 	"/>
	<polygon class="st3" points="574.3,146.6 574.1,149.2 526,124.1 526.2,121.5 	"/>
	<polygon class="st4" points="526.2,121.5 574.3,146.6 552.8,156.6 504.7,131.5 	"/>
	<polygon class="st5" points="574.3,146.6 574.1,149.2 552.6,159.2 552.8,156.6 	"/>
	<polygon class="st6" points="552.8,156.6 552.6,159.2 504.5,134.1 504.7,131.5 	"/>
	<polygon class="st3" points="552.8,159.4 552.7,162 498.1,133.6 498.3,130.9 	"/>
	<polygon class="st2" points="579.9,146.8 579.8,149.4 552.7,162 552.8,159.4 	"/>
	<path class="st7" d="M498.3,130.9l27.1-12.6l54.6,28.5l-27.1,12.6L498.3,130.9z M574.3,146.6l-48.1-25.1l-21.5,10l48.1,25.1
		L574.3,146.6"/>
</g>
<g>
	<polygon class="st8" points="580,149.6 579.9,152.2 558.3,162.2 558.5,159.6 	"/>
	<polygon class="st9" points="626.7,173.9 626.5,176.5 579.9,152.2 580,149.6 	"/>
	<polygon class="st10" points="580,149.6 626.7,173.9 605.2,183.9 558.5,159.6 	"/>
	<polygon class="st11" points="626.7,173.9 626.5,176.5 605,186.6 605.2,183.9 	"/>
	<polygon class="st12" points="605.2,183.9 605,186.6 558.3,162.2 558.5,159.6 	"/>
	<polygon class="st9" points="605.3,186.7 605.1,189.4 552.7,162 552.8,159.4 	"/>
	<polygon class="st8" points="632.3,174.1 632.2,176.7 605.1,189.4 605.3,186.7 	"/>
	<path class="st13" d="M552.8,159.4l27.1-12.6l52.4,27.3l-27.1,12.6L552.8,159.4z M626.7,173.9L580,149.6l-21.5,10l46.7,24.4
		L626.7,173.9"/>
</g>
<g>
	<polygon class="st2" points="499.1,134.1 499,136.7 478.8,146.1 479,143.5 	"/>
	<polygon class="st3" points="547.2,159.2 547,161.8 499,136.7 499.1,134.1 	"/>
	<polygon class="st4" points="499.1,134.1 547.2,159.2 527.1,168.6 479,143.5 	"/>
	<polygon class="st5" points="547.2,159.2 547,161.8 526.9,171.2 527.1,168.6 	"/>
	<polygon class="st6" points="527.1,168.6 526.9,171.2 478.8,146.1 479,143.5 	"/>
	<polygon class="st3" points="527.2,171.4 527,174 472.4,145.5 472.6,142.9 	"/>
	<polygon class="st2" points="552.8,159.4 552.7,162 527,174 527.2,171.4 	"/>
	<path class="st7" d="M472.6,142.9l25.7-12l54.6,28.5l-25.7,12L472.6,142.9z M547.2,159.2l-48.1-25.1l-20.1,9.4l48.1,25.1
		L547.2,159.2"/>
</g>
<g>
	<polygon class="st2" points="473.4,146.1 473.3,148.7 449.6,159.7 449.8,157.1 	"/>
	<polygon class="st3" points="521.5,171.2 521.4,173.8 473.3,148.7 473.4,146.1 	"/>
	<polygon class="st4" points="473.4,146.1 521.5,171.2 497.9,182.2 449.8,157.1 	"/>
	<polygon class="st5" points="521.5,171.2 521.4,173.8 497.8,184.8 497.9,182.2 	"/>
	<polygon class="st6" points="497.9,182.2 497.8,184.8 449.6,159.7 449.8,157.1 	"/>
	<polygon class="st3" points="498,185 497.9,187.6 443.3,159.1 443.4,156.5 	"/>
	<polygon class="st2" points="527.2,171.4 527,174 497.9,187.6 498,185 	"/>
	<path class="st7" d="M443.4,156.5l29.2-13.6l54.6,28.5L498,184.9L443.4,156.5z M521.5,171.2l-48.1-25.1l-23.6,11l48.1,25.1
		L521.5,171.2"/>
</g>
<g>
	<polygon class="st8" points="553,162.2 552.8,164.8 532.7,174.2 532.8,171.6 	"/>
	<polygon class="st9" points="599.6,186.5 599.5,189.1 552.8,164.8 553,162.2 	"/>
	<polygon class="st11" points="599.6,186.5 599.5,189.1 579.3,198.5 579.5,195.9 	"/>
	<polygon class="st12" points="579.5,195.9 579.3,198.5 532.7,174.2 532.8,171.6 	"/>
	<path class="st13" d="M527.1,171.4l25.7-12l52.4,27.3l-25.7,12L527.1,171.4z M599.6,186.5l-46.7-24.3l-20.1,9.4l46.7,24.4
		L599.6,186.5"/>
	<polygon class="st10" points="553,162.2 599.6,186.5 579.5,195.9 532.8,171.6 	"/>
	<polygon class="st9" points="579.6,198.7 579.4,201.3 527,174 527.2,171.4 	"/>
	<polygon class="st8" points="605.3,186.7 605.1,189.4 579.4,201.3 579.6,198.7 	"/>
</g>
<g>
	<polygon class="st8" points="527.3,174.2 527.1,176.8 503.5,187.8 503.6,185.2 	"/>
	<polygon class="st9" points="573.9,198.5 573.8,201.1 527.1,176.8 527.3,174.2 	"/>
	<polygon class="st10" points="527.3,174.2 573.9,198.5 550.3,209.5 503.7,185.2 	"/>
	<polygon class="st11" points="573.9,198.5 573.8,201.1 550.2,212.1 550.3,209.5 	"/>
	<polygon class="st12" points="550.3,209.5 550.2,212.1 503.5,187.8 503.7,185.2 	"/>
	<polygon class="st9" points="550.4,212.3 550.3,214.9 497.9,187.6 498,185 	"/>
	<polygon class="st8" points="579.6,198.7 579.4,201.3 550.3,214.9 550.4,212.3 	"/>
	<path class="st13" d="M498,184.9l29.2-13.6l52.4,27.3l-29.1,13.6L498,184.9z M573.9,198.5l-46.7-24.3l-23.6,11l46.7,24.3
		L573.9,198.5"/>
</g>
<g>
	<polygon class="st2" points="444.3,159.7 444.1,162.3 422.6,172.3 422.7,169.7 	"/>
	<polygon class="st3" points="492.4,184.8 492.2,187.4 444.1,162.3 444.3,159.7 	"/>
	<polygon class="st4" points="444.3,159.7 492.4,184.8 470.8,194.8 422.7,169.7 	"/>
	<polygon class="st5" points="492.4,184.8 492.2,187.4 470.7,197.4 470.8,194.8 	"/>
	<polygon class="st6" points="470.8,194.8 470.7,197.4 422.6,172.3 422.7,169.7 	"/>
	<polygon class="st3" points="471.6,197.3 471.5,199.9 416.9,171.4 417.1,168.8 	"/>
	<polygon class="st2" points="498,185 497.9,187.6 471.5,199.9 471.6,197.3 	"/>
	<path class="st7" d="M417.1,168.8l26.4-12.3l54.6,28.4l-26.4,12.3L417.1,168.8z M492.4,184.8l-48.1-25.1l-21.5,10l48.1,25.1
		L492.4,184.8"/>
</g>
<g>
	<polygon class="st8" points="498.1,187.8 497.9,190.4 476.4,200.4 476.6,197.8 	"/>
	<polygon class="st9" points="544.8,212.1 544.6,214.7 497.9,190.4 498.1,187.8 	"/>
	<polygon class="st10" points="498.1,187.8 544.8,212.1 523.3,222.1 476.6,197.8 	"/>
	<polygon class="st11" points="544.8,212.1 544.6,214.7 523.1,224.8 523.3,222.1 	"/>
	<polygon class="st12" points="523.3,222.1 523.1,224.8 476.4,200.4 476.6,197.8 	"/>
	<polygon class="st9" points="524,224.6 523.9,227.2 471.5,199.9 471.6,197.3 	"/>
	<polygon class="st8" points="550.4,212.3 550.3,214.9 523.9,227.2 524,224.6 	"/>
	<path class="st13" d="M471.6,197.3l26.4-12.3l52.4,27.4L524,224.6L471.6,197.3z M544.8,212.1l-46.7-24.3l-21.5,10l46.7,24.3
		L544.8,212.1"/>
</g>
<g>
	<polygon class="st2" points="417.2,172.3 417,174.9 395.5,185 395.6,182.4 	"/>
	<polygon class="st3" points="465.3,197.4 465.1,200 417,174.9 417.2,172.3 	"/>
	<polygon class="st2" points="390.1,184.9 389.9,187.6 367,198.2 367.2,195.6 	"/>
	<polygon class="st6" points="443.8,207.4 443.6,210.1 395.5,185 395.6,182.4 	"/>
	<polygon class="st5" points="465.3,197.4 465.1,200 443.6,210.1 443.8,207.4 	"/>
	<polygon class="st4" points="417.2,172.3 465.3,197.4 443.8,207.4 395.6,182.4 	"/>
	<polygon class="st8" points="471,200.4 470.9,203 449.3,213.1 449.5,210.4 	"/>
	<polygon class="st3" points="443.9,210.2 443.7,212.8 389.1,184.4 389.3,181.8 	"/>
	<path class="st7" d="M389.3,181.8l27.8-13l54.6,28.5l-27.8,13L389.3,181.8z M465.3,197.4l-48.1-25.1l-21.5,10l48.1,25.1
		L465.3,197.4"/>
	<polygon class="st2" points="471.6,197.3 471.5,199.9 443.7,212.8 443.9,210.2 	"/>
	<polygon class="st3" points="438.2,210 438,212.6 389.9,187.6 390.1,184.9 	"/>
	<polygon class="st9" points="517.7,224.7 517.5,227.4 470.9,203 471,200.4 	"/>
	<polygon class="st6" points="415.3,220.7 415.1,223.3 367,198.2 367.2,195.6 	"/>
	<polygon class="st5" points="438.2,210 438,212.6 415.1,223.3 415.3,220.7 	"/>
	<polygon class="st4" points="390.1,184.9 438.2,210 415.3,220.7 367.2,195.6 	"/>
	<path class="st7" d="M360.8,195.1l28.5-13.3l54.6,28.5l-28.4,13.3L360.8,195.1z M438.2,210.1l-48.1-25.1l-22.9,10.7l48.1,25.1
		L438.2,210.1"/>
	<polygon class="st2" points="443.9,210.2 443.7,212.8 415.2,226.1 415.4,223.5 	"/>
	<polygon class="st3" points="415.4,223.5 415.2,226.1 360.7,197.7 360.8,195.1 	"/>
	<polygon class="st10" points="471,200.4 517.7,224.7 496.2,234.8 449.5,210.4 	"/>
	<polygon class="st11" points="517.7,224.7 517.5,227.4 496,237.4 496.2,234.8 	"/>
	<polygon class="st12" points="496.2,234.8 496,237.4 449.4,213.1 449.5,210.4 	"/>
	<path class="st13" d="M443.8,210.2l27.8-13l52.4,27.3l-27.8,13L443.8,210.2z M517.7,224.7L471,200.4l-21.5,10l46.7,24.3
		L517.7,224.7"/>
	<polygon class="st9" points="496.3,237.6 496.1,240.2 443.7,212.8 443.9,210.2 	"/>
	<polygon class="st8" points="524,224.6 523.9,227.2 496.1,240.2 496.3,237.6 	"/>
</g>
<g>
	<polygon class="st2" points="361.6,198.2 361.5,200.8 340,210.9 340.1,208.3 	"/>
	<polygon class="st8" points="443.9,213 443.8,215.6 420.9,226.3 421,223.7 	"/>
	<polygon class="st3" points="409.7,223.3 409.6,225.9 361.5,200.8 361.6,198.2 	"/>
	<polygon class="st2" points="334.6,210.8 334.4,213.4 311.5,224.1 311.6,221.5 	"/>
	<polygon class="st9" points="490.6,237.4 490.5,240 443.8,215.6 443.9,213 	"/>
	<polygon class="st5" points="409.7,223.3 409.6,225.9 388.1,235.9 388.2,233.3 	"/>
	<polygon class="st6" points="388.2,233.3 388.1,235.9 340,210.9 340.1,208.3 	"/>
	<polygon class="st4" points="361.6,198.2 409.7,223.3 388.2,233.3 340.1,208.3 	"/>
	<polygon class="st8" points="415.5,226.3 415.3,228.9 393.8,238.9 394,236.3 	"/>
	<path class="st7" d="M333.7,207.7l27.1-12.6l54.6,28.5l-27.1,12.6L333.7,207.7z M409.7,223.3l-48.1-25.1l-21.5,10l48.1,25.1
		L409.7,223.3"/>
	<polygon class="st3" points="388.3,236.1 388.1,238.7 333.6,210.3 333.8,207.7 	"/>
	<polygon class="st2" points="415.4,223.5 415.2,226.1 388.1,238.7 388.3,236.1 	"/>
	<polygon class="st3" points="382.7,235.9 382.5,238.5 334.4,213.4 334.6,210.8 	"/>
	<polygon class="st11" points="490.6,237.4 490.5,240 467.5,250.7 467.7,248.1 	"/>
	<polygon class="st12" points="467.7,248.1 467.5,250.7 420.9,226.3 421,223.7 	"/>
	<polygon class="st10" points="443.9,213 490.6,237.4 467.7,248.1 421,223.7 	"/>
	<polygon class="st9" points="467.8,250.8 467.6,253.4 415.2,226.1 415.4,223.5 	"/>
	<polygon class="st8" points="496.3,237.6 496.1,240.2 467.6,253.4 467.8,250.8 	"/>
	<path class="st13" d="M415.4,223.5l28.5-13.3l52.4,27.3l-28.5,13.3L415.4,223.5z M490.7,237.4L444,213l-22.9,10.7l46.7,24.3
		L490.7,237.4"/>
	<polygon class="st9" points="462.1,250.6 462,253.3 415.3,228.9 415.5,226.3 	"/>
	<polygon class="st5" points="382.7,235.9 382.5,238.5 359.6,249.2 359.8,246.6 	"/>
	<polygon class="st6" points="359.8,246.6 359.6,249.2 311.5,224.1 311.6,221.5 	"/>
	<polygon class="st4" points="334.6,210.8 382.7,235.9 359.8,246.6 311.6,221.5 	"/>
	<polygon class="st2" points="388.3,236.1 388.1,238.7 360.4,251.7 360.5,249.1 	"/>
	<polygon class="st3" points="360.5,249.1 360.4,251.7 305.8,223.2 306,220.6 	"/>
	<path class="st7" d="M306,220.6l27.8-13l54.6,28.5l-27.8,13L306,220.6z M382.7,235.9l-48.1-25.1l-22.9,10.7l48.1,25.1L382.7,235.9"
		/>
	<polygon class="st11" points="462.1,250.6 462,253.3 440.5,263.3 440.6,260.7 	"/>
	<polygon class="st12" points="440.6,260.7 440.5,263.3 393.8,238.9 394,236.3 	"/>
	<polygon class="st10" points="415.5,226.3 462.1,250.6 440.6,260.7 394,236.3 	"/>
	<polygon class="st9" points="440.7,263.5 440.6,266.1 388.1,238.7 388.3,236.1 	"/>
	<path class="st13" d="M388.3,236.1l27.1-12.6l52.4,27.3l-27.1,12.6L388.3,236.1z M462.1,250.6l-46.7-24.3l-21.5,10l46.7,24.3
		L462.1,250.6"/>
	<polygon class="st8" points="467.8,250.8 467.6,253.4 440.6,266.1 440.7,263.5 	"/>
</g>
<g>
	<polygon class="st8" points="388.4,238.9 388.3,241.5 365.3,252.2 365.5,249.6 	"/>
	<polygon class="st9" points="435.1,263.3 434.9,265.9 388.3,241.5 388.4,238.9 	"/>
	<polygon class="st10" points="388.4,238.9 435.1,263.3 412.2,274 365.5,249.6 	"/>
	<polygon class="st11" points="435.1,263.3 434.9,265.9 412,276.6 412.2,274 	"/>
	<polygon class="st12" points="412.2,274 412,276.6 365.3,252.2 365.5,249.6 	"/>
	<polygon class="st9" points="412.9,276.4 412.8,279 360.4,251.7 360.5,249.1 	"/>
	<polygon class="st8" points="440.7,263.5 440.6,266.1 412.8,279 412.9,276.4 	"/>
	<path class="st13" d="M360.5,249.1l27.8-13l52.4,27.3l-27.8,13L360.5,249.1z M435.1,263.3l-46.6-24.3l-22.9,10.7l46.6,24.3
		L435.1,263.3"/>
</g>
<g>
	<polygon class="st2" points="306.8,223.8 306.6,226.4 285.8,236.1 286,233.5 	"/>
	<polygon class="st3" points="354.9,248.9 354.7,251.5 306.6,226.4 306.8,223.8 	"/>
	<polygon class="st5" points="354.9,248.9 354.7,251.5 333.9,261.2 334.1,258.6 	"/>
	<polygon class="st6" points="334.1,258.6 333.9,261.2 285.8,236.1 286,233.5 	"/>
	<path class="st7" d="M279.6,232.9l26.4-12.3l54.6,28.5l-26.4,12.3L279.6,232.9z M354.9,248.9l-48.1-25.1l-20.8,9.7l48.1,25.1
		L354.9,248.9"/>
	<polygon class="st4" points="306.8,223.8 354.9,248.9 334.1,258.6 286,233.5 	"/>
	<polygon class="st3" points="334.1,261.4 334,264 279.4,235.5 279.6,232.9 	"/>
	<polygon class="st2" points="360.5,249.1 360.4,251.7 334,264 334.1,261.4 	"/>
</g>
<g>
	<polygon class="st2" points="280.4,236.1 280.3,238.7 258,249.1 258.2,246.5 	"/>
	<polygon class="st3" points="328.5,261.2 328.4,263.8 280.3,238.7 280.4,236.1 	"/>
	<polygon class="st5" points="328.5,261.2 328.4,263.8 306.1,274.1 306.3,271.5 	"/>
	<polygon class="st6" points="306.3,271.5 306.1,274.1 258,249.1 258.2,246.5 	"/>
	<path class="st7" d="M251.8,245.9l27.8-12.9l54.6,28.5l-27.7,12.9L251.8,245.9z M328.5,261.2l-48.1-25.1l-22.2,10.4l48.1,25.1
		L328.5,261.2"/>
	<polygon class="st4" points="280.4,236.1 328.5,261.2 306.3,271.5 258.2,246.5 	"/>
	<polygon class="st3" points="306.4,274.3 306.2,276.9 251.7,248.5 251.8,245.9 	"/>
	<polygon class="st2" points="334.1,261.4 334,264 306.2,276.9 306.4,274.3 	"/>
</g>
<g>
	<polygon class="st8" points="360.6,251.9 360.5,254.5 339.6,264.2 339.8,261.6 	"/>
	<polygon class="st9" points="407.3,276.2 407.1,278.8 360.5,254.5 360.6,251.9 	"/>
	<polygon class="st2" points="334.3,264.2 334.1,266.8 311.9,277.1 312,274.5 	"/>
	<polygon class="st10" points="360.6,251.9 407.3,276.2 386.5,285.9 339.8,261.6 	"/>
	<polygon class="st11" points="407.3,276.2 407.1,278.8 386.3,288.5 386.5,285.9 	"/>
	<polygon class="st12" points="386.5,285.9 386.3,288.5 339.7,264.2 339.8,261.6 	"/>
	<polygon class="st9" points="386.6,288.7 386.4,291.3 334,264 334.1,261.4 	"/>
	<path class="st13" d="M334.2,261.4l26.4-12.3l52.4,27.3l-26.4,12.3L334.2,261.4z M407.3,276.2l-46.7-24.3l-20.8,9.7l46.6,24.4
		L407.3,276.2"/>
	<polygon class="st8" points="412.9,276.4 412.8,279 386.4,291.3 386.6,288.7 	"/>
	<polygon class="st3" points="380.9,288.5 380.8,291.1 334.1,266.8 334.3,264.2 	"/>
	<polygon class="st4" points="334.3,264.2 380.9,288.5 358.7,298.9 312,274.5 	"/>
	<polygon class="st5" points="380.9,288.5 380.8,291.1 358.5,301.5 358.7,298.9 	"/>
	<polygon class="st6" points="358.7,298.9 358.5,301.5 311.9,277.1 312,274.5 	"/>
	<polygon class="st2" points="386.6,288.7 386.4,291.3 358.6,304.3 358.8,301.7 	"/>
	<path class="st7" d="M306.4,274.3l27.8-13l52.4,27.3l-27.8,13L306.4,274.3z M381,288.5l-46.7-24.3l-22.2,10.4l46.7,24.3L381,288.5"
		/>
	<polygon class="st3" points="358.8,301.7 358.6,304.3 306.2,276.9 306.4,274.3 	"/>
</g>
<g>
	<polygon class="st2" points="252.6,249 252.5,251.6 229.6,262.3 229.7,259.7 	"/>
	<polygon class="st3" points="300.7,274.1 300.6,276.7 252.5,251.6 252.6,249 	"/>
	<polygon class="st3" points="277.9,287.6 277.8,290.2 223.2,261.8 223.4,259.1 	"/>
	<polygon class="st2" points="224.9,262 224.7,264.6 202.5,275 202.6,272.4 	"/>
	<polygon class="st4" points="252.6,249.1 300.7,274.1 277.8,284.8 229.7,259.7 	"/>
	<polygon class="st5" points="300.7,274.1 300.6,276.7 277.7,287.4 277.8,284.8 	"/>
	<polygon class="st6" points="277.8,284.8 277.7,287.4 229.6,262.3 229.7,259.7 	"/>
	<polygon class="st3" points="273,287.1 272.8,289.7 224.7,264.6 224.9,262 	"/>
	<polygon class="st2" points="306.5,277.1 306.3,279.7 283.4,290.4 283.6,287.8 	"/>
	<polygon class="st2" points="306.4,274.3 306.2,276.9 277.8,290.2 277.9,287.6 	"/>
	<path class="st7" d="M223.3,259.2l28.5-13.3l54.6,28.5L278,287.6L223.3,259.2z M300.7,274.2l-48.1-25.1l-22.9,10.7l48.1,25.1
		L300.7,274.2"/>
	<polygon class="st3" points="353.1,301.5 353,304.1 306.3,279.7 306.5,277.1 	"/>
	<polygon class="st4" points="224.9,262 273,287.1 250.8,297.5 202.6,272.4 	"/>
	<polygon class="st6" points="250.8,297.5 250.6,300 202.5,275 202.6,272.4 	"/>
	<polygon class="st5" points="273,287.1 272.8,289.7 250.6,300 250.8,297.5 	"/>
	<polygon class="st3" points="330.3,315 330.2,317.5 277.8,290.2 277.9,287.6 	"/>
	<polygon class="st2" points="278.7,290.1 278.6,292.7 256.3,303 256.5,300.4 	"/>
	<polygon class="st2" points="277.9,287.6 277.8,290.2 250.7,302.8 250.8,300.2 	"/>
	<polygon class="st3" points="250.8,300.2 250.7,302.8 196.1,274.4 196.3,271.8 	"/>
	<path class="st7" d="M196.3,271.8l27.1-12.6l54.6,28.5l-27.1,12.6L196.3,271.8z M273,287.1L224.9,262l-22.2,10.4l48.1,25.1
		L273,287.1"/>
	<polygon class="st5" points="353.1,301.5 353,304.1 330.1,314.8 330.2,312.1 	"/>
	<polygon class="st6" points="330.2,312.1 330.1,314.8 283.4,290.4 283.6,287.8 	"/>
	<path class="st7" d="M277.9,287.6l28.5-13.3l52.4,27.3L330.3,315L277.9,287.6z M353.1,301.5l-46.7-24.3l-22.9,10.7l46.7,24.3
		L353.1,301.5"/>
	<polygon class="st4" points="306.5,277.1 353.1,301.5 330.2,312.1 283.6,287.8 	"/>
	<polygon class="st3" points="325.4,314.4 325.2,317 278.6,292.7 278.7,290.1 	"/>
	<polygon class="st2" points="358.8,301.7 358.6,304.3 330.2,317.5 330.3,315 	"/>
	<polygon class="st5" points="325.4,314.4 325.2,317 303,327.4 303.2,324.8 	"/>
	<polygon class="st6" points="303.2,324.8 303,327.4 256.3,303 256.5,300.4 	"/>
	<path class="st7" d="M250.8,300.2l27.1-12.6l52.4,27.3l-27.1,12.6L250.8,300.2z M325.4,314.4l-46.7-24.3l-22.2,10.4l46.7,24.3
		L325.4,314.4"/>
	<polygon class="st4" points="278.7,290.1 325.4,314.4 303.2,324.8 256.5,300.4 	"/>
	<polygon class="st2" points="330.3,315 330.2,317.5 303.1,330.2 303.3,327.6 	"/>
	<polygon class="st3" points="303.3,327.6 303.1,330.2 250.7,302.8 250.8,300.2 	"/>
</g>
<g>
	<polygon class="st14" points="745.9,153.1 745.7,155.7 722.8,166.4 723,163.8 	"/>
	<polygon class="st15" points="794.7,178.6 794.5,181.2 745.7,155.7 745.9,153.1 	"/>
	<polygon class="st15" points="772.6,192.4 772.4,195 717.2,166.2 717.3,163.6 	"/>
	<polygon class="st14" points="718.1,166 717.9,168.6 695,179.3 695.2,176.7 	"/>
	<polygon class="st16" points="771.8,189.2 771.6,191.8 722.8,166.4 723,163.8 	"/>
	<polygon class="st17" points="794.7,178.6 794.5,181.2 771.6,191.8 771.8,189.2 	"/>
	<path class="st18" d="M717.3,163.6l28.5-13.3l55.3,28.8l-28.5,13.3L717.3,163.6z M794.7,178.6l-48.8-25.5L723,163.8l48.8,25.5
		L794.7,178.6"/>
	<polygon class="st19" points="745.9,153.1 794.7,178.6 771.8,189.2 723,163.8 	"/>
	<polygon class="st15" points="766.9,191.5 766.8,194.1 717.9,168.6 718.1,166 	"/>
	<polygon class="st14" points="801.2,181.9 801,184.5 778.1,195.2 778.2,192.6 	"/>
	<polygon class="st14" points="801,179.1 800.9,181.7 772.4,195 772.6,192.4 	"/>
	<polygon class="st15" points="848.5,206.6 848.4,209.2 801,184.5 801.2,181.9 	"/>
	<polygon class="st16" points="744,202.2 743.9,204.8 695,179.3 695.2,176.7 	"/>
	<polygon class="st17" points="766.9,191.5 766.8,194.1 743.9,204.8 744,202.2 	"/>
	<polygon class="st19" points="718.1,166 766.9,191.5 744,202.2 695.2,176.7 	"/>
	<path class="st18" d="M689.5,176.5l27.8-13l55.3,28.8l-27.8,13L689.5,176.5z M766.9,191.5l-48.8-25.5l-22.9,10.7l48.8,25.5
		L766.9,191.5"/>
	<polygon class="st14" points="772.6,192.4 772.4,195 744.7,208 744.8,205.4 	"/>
	<polygon class="st15" points="744.8,205.4 744.7,208 689.4,179.1 689.5,176.5 	"/>
	<polygon class="st19" points="801.2,181.9 848.5,206.6 825.6,217.3 778.2,192.6 	"/>
	<polygon class="st17" points="848.5,206.6 848.4,209.3 825.5,219.9 825.6,217.3 	"/>
	<polygon class="st16" points="825.6,217.3 825.5,219.9 778.1,195.2 778.2,192.6 	"/>
	<path class="st18" d="M772.6,192.4l28.5-13.3l53.1,27.7l-28.5,13.3L772.6,192.4z M848.5,206.6l-47.4-24.7l-22.9,10.7l47.4,24.7
		L848.5,206.6"/>
	<polygon class="st15" points="825.7,220.1 825.6,222.7 772.4,195 772.6,192.4 	"/>
	<polygon class="st14" points="854.2,206.8 854,209.4 825.6,222.7 825.7,220.1 	"/>
</g>
<g>
	<polygon class="st14" points="689.6,179.3 689.5,181.9 667.3,192.3 667.4,189.7 	"/>
	<polygon class="st15" points="738.5,204.8 738.3,207.4 689.5,181.9 689.6,179.3 	"/>
	<polygon class="st14" points="773.4,194.9 773.2,197.5 750.3,208.2 750.5,205.6 	"/>
	<polygon class="st20" points="661.9,192.3 661.7,194.9 640.2,204.9 640.3,202.3 	"/>
	<polygon class="st15" points="820.8,219.6 820.6,222.2 773.2,197.5 773.4,194.9 	"/>
	<polygon class="st17" points="738.5,204.8 738.3,207.4 716.1,217.8 716.2,215.1 	"/>
	<polygon class="st16" points="716.2,215.1 716.1,217.8 667.3,192.3 667.4,189.7 	"/>
	<polygon class="st19" points="689.6,179.3 738.5,204.8 716.2,215.1 667.4,189.7 	"/>
	<polygon class="st21" points="710.7,217.7 710.5,220.3 661.7,194.9 661.9,192.3 	"/>
	<polygon class="st14" points="744.9,208.1 744.8,210.8 722.5,221.1 722.7,218.5 	"/>
	<polygon class="st15" points="717,218.3 716.9,220.9 661.6,192.1 661.8,189.5 	"/>
	<polygon class="st14" points="744.8,205.4 744.7,208 716.9,220.9 717,218.3 	"/>
	<path class="st18" d="M661.8,189.5l27.8-13l55.3,28.8l-27.8,13L661.8,189.5z M738.4,204.8l-48.8-25.5l-22.2,10.4l48.8,25.5
		L738.4,204.8"/>
	<polygon class="st16" points="797.9,230.3 797.7,232.9 750.3,208.2 750.5,205.6 	"/>
	<polygon class="st17" points="820.8,219.6 820.6,222.2 797.7,232.9 797.9,230.3 	"/>
	<path class="st18" d="M744.8,205.4l27.8-13l53.1,27.7l-27.8,13L744.8,205.4z M820.8,219.6l-47.3-24.7l-23,10.7l47.4,24.7
		L820.8,219.6"/>
	<polygon class="st19" points="773.4,194.9 820.8,219.6 797.9,230.3 750.5,205.6 	"/>
	<polygon class="st15" points="798,233.1 797.8,235.7 744.7,208 744.8,205.4 	"/>
	<polygon class="st14" points="825.7,220.1 825.6,222.7 797.8,235.7 798,233.1 	"/>
	<polygon class="st15" points="792.3,232.9 792.1,235.5 744.8,210.8 744.9,208.1 	"/>
	<polygon class="st22" points="710.7,217.7 710.5,220.3 689,230.4 689.2,227.8 	"/>
	<polygon class="st23" points="689.2,227.8 689,230.4 640.2,204.9 640.3,202.3 	"/>
	<polygon class="st24" points="661.9,192.3 710.7,217.7 689.2,227.8 640.3,202.3 	"/>
	<polygon class="st20" points="717,218.3 716.9,220.9 689.8,233.5 690,230.9 	"/>
	<polygon class="st21" points="690,230.9 689.8,233.5 634.5,204.7 634.7,202.1 	"/>
	<path class="st25" d="M634.7,202.1l27.1-12.6l55.3,28.8L690,230.9L634.7,202.1z M710.7,217.7l-48.8-25.5l-21.5,10l48.8,25.5
		L710.7,217.7"/>
	<polygon class="st17" points="792.3,232.9 792.2,235.5 769.9,245.8 770.1,243.2 	"/>
	<polygon class="st16" points="770.1,243.2 769.9,245.8 722.5,221.1 722.7,218.5 	"/>
	<polygon class="st19" points="744.9,208.1 792.3,232.9 770.1,243.2 722.7,218.5 	"/>
	<polygon class="st15" points="770.2,246 770,248.6 716.9,220.9 717,218.3 	"/>
	<path class="st18" d="M717,218.3l27.8-13l53.1,27.7l-27.8,13L717,218.3z M792.3,232.9l-47.4-24.7l-22.2,10.4l47.4,24.7L792.3,232.9
		"/>
	<polygon class="st14" points="798,233.1 797.8,235.7 770,248.6 770.2,246 	"/>
</g>
<g>
	<polygon class="st20" points="634.8,204.9 634.6,207.5 614.5,216.9 614.7,214.3 	"/>
	<polygon class="st21" points="683.6,230.4 683.5,233 634.6,207.5 634.8,204.9 	"/>
	<polygon class="st22" points="683.6,230.4 683.5,233 663.3,242.4 663.5,239.7 	"/>
	<polygon class="st23" points="663.5,239.7 663.3,242.4 614.5,216.9 614.7,214.3 	"/>
	<path class="st25" d="M609,214.1l25.7-12l55.3,28.9l-25.7,12L609,214.1z M683.6,230.4l-48.8-25.5l-20.1,9.4l48.8,25.5L683.6,230.4"
		/>
	<polygon class="st24" points="634.8,204.9 683.6,230.4 663.5,239.7 614.7,214.3 	"/>
	<polygon class="st21" points="664.3,242.9 664.1,245.5 608.8,216.7 609,214.1 	"/>
	<polygon class="st20" points="690,230.9 689.8,233.5 664.1,245.5 664.3,242.9 	"/>
</g>
<g>
	<polygon class="st20" points="717.1,221.1 717,223.7 695.5,233.7 695.6,231.1 	"/>
	<polygon class="st21" points="764.5,245.8 764.4,248.4 717,223.7 717.1,221.1 	"/>
	<polygon class="st24" points="717.2,221.1 764.5,245.8 743,255.9 695.6,231.1 	"/>
	<polygon class="st22" points="764.5,245.8 764.4,248.4 742.9,258.5 743,255.9 	"/>
	<polygon class="st23" points="743,255.9 742.9,258.5 695.5,233.7 695.6,231.1 	"/>
	<polygon class="st21" points="743.1,258.6 743,261.3 689.8,233.5 690,230.9 	"/>
	<polygon class="st20" points="770.2,246 770,248.6 743,261.3 743.1,258.6 	"/>
	<path class="st25" d="M690,230.9l27.1-12.6l53.1,27.7l-27.1,12.6L690,230.9z M764.5,245.8l-47.4-24.7l-21.5,10l47.4,24.7
		L764.5,245.8"/>
</g>
<g>
	<polygon class="st20" points="609.1,216.9 609,219.5 585.3,230.5 585.5,227.9 	"/>
	<polygon class="st21" points="657.9,242.3 657.8,244.9 609,219.5 609.1,216.9 	"/>
	<polygon class="st20" points="690.1,233.7 689.9,236.3 669.8,245.7 669.9,243.1 	"/>
	<polygon class="st20" points="579.9,230.5 579.8,233.1 558.3,243.1 558.4,240.5 	"/>
	<polygon class="st21" points="737.5,258.4 737.3,261 689.9,236.3 690.1,233.7 	"/>
	<polygon class="st22" points="657.9,242.3 657.8,244.9 634.2,255.9 634.3,253.3 	"/>
	<polygon class="st23" points="634.3,253.3 634.2,255.9 585.3,230.5 585.5,227.9 	"/>
	<polygon class="st24" points="609.1,216.9 657.9,242.3 634.3,253.3 585.5,227.9 	"/>
	<polygon class="st21" points="628.8,255.9 628.6,258.5 579.8,233.1 579.9,230.5 	"/>
	<polygon class="st20" points="664.4,245.7 664.2,248.3 640.6,259.3 640.8,256.7 	"/>
	<polygon class="st21" points="635.1,256.5 635,259.1 579.7,230.3 579.8,227.7 	"/>
	<polygon class="st20" points="664.3,242.9 664.1,245.5 635,259.1 635.1,256.5 	"/>
	<path class="st25" d="M579.8,227.7l29.2-13.6l55.3,28.9l-29.2,13.6L579.8,227.7z M657.9,242.3l-48.8-25.5l-23.6,11l48.8,25.5
		L657.9,242.3"/>
	<polygon class="st24" points="690.1,233.7 737.5,258.4 717.3,267.8 669.9,243.1 	"/>
	<polygon class="st23" points="717.3,267.8 717.2,270.4 669.8,245.7 669.9,243.1 	"/>
	<polygon class="st22" points="737.5,258.4 737.3,261 717.2,270.4 717.3,267.8 	"/>
	<polygon class="st21" points="717.4,270.6 717.3,273.2 664.1,245.5 664.3,242.9 	"/>
	<polygon class="st20" points="743.1,258.6 743,261.3 717.3,273.2 717.4,270.6 	"/>
	<path class="st25" d="M664.3,242.9l25.7-12l53.1,27.7l-25.7,12L664.3,242.9z M737.4,258.4L690,233.7l-20.1,9.4l47.4,24.7
		L737.4,258.4"/>
	<polygon class="st21" points="711.8,270.4 711.6,273 664.2,248.3 664.4,245.7 	"/>
	<polygon class="st22" points="628.8,255.9 628.6,258.5 607.1,268.6 607.2,266 	"/>
	<polygon class="st23" points="607.2,266 607.1,268.6 558.3,243.1 558.4,240.5 	"/>
	<polygon class="st24" points="579.9,230.5 628.8,255.9 607.2,266 558.4,240.5 	"/>
	<polygon class="st20" points="635.1,256.5 635,259.1 608.6,271.4 608.7,268.8 	"/>
	<polygon class="st21" points="608.7,268.8 608.6,271.4 553.3,242.6 553.5,240 	"/>
	<path class="st25" d="M553.4,239.9l26.4-12.3l55.3,28.8l-26.4,12.3L553.4,239.9z M628.7,255.9l-48.8-25.5l-21.5,10l48.9,25.5
		L628.7,255.9"/>
	<polygon class="st22" points="711.8,270.4 711.6,273 688,284 688.2,281.4 	"/>
	<polygon class="st23" points="688.2,281.4 688,284 640.6,259.3 640.8,256.7 	"/>
	<path class="st25" d="M635.1,256.5l29.2-13.6l53.1,27.7l-29.2,13.6L635.1,256.5z M711.8,270.4l-47.3-24.7l-23.6,11l47.4,24.7
		L711.8,270.4"/>
	<polygon class="st24" points="664.4,245.7 711.8,270.4 688.2,281.4 640.8,256.7 	"/>
	<polygon class="st21" points="688.3,284.2 688.1,286.8 635,259.1 635.1,256.5 	"/>
	<polygon class="st20" points="717.4,270.6 717.3,273.2 688.1,286.8 688.3,284.2 	"/>
</g>
<g>
	<polygon class="st20" points="552.9,243.1 552.7,245.7 531.2,255.7 531.3,253.1 	"/>
	<polygon class="st21" points="601.7,268.6 601.5,271.2 552.7,245.7 552.9,243.1 	"/>
	<polygon class="st20" points="635.2,259.3 635.1,261.9 613.5,271.9 613.7,269.3 	"/>
	<polygon class="st20" points="525.8,255.7 525.6,258.3 502.7,269 502.9,266.4 	"/>
	<polygon class="st21" points="682.6,284 682.5,286.6 635.1,261.9 635.2,259.3 	"/>
	<polygon class="st22" points="601.7,268.6 601.5,271.2 580,281.2 580.2,278.6 	"/>
	<polygon class="st23" points="580.2,278.6 580,281.2 531.2,255.7 531.3,253.1 	"/>
	<polygon class="st24" points="552.9,243.1 601.7,268.6 580.2,278.6 531.3,253.1 	"/>
	<polygon class="st21" points="574.6,281.2 574.5,283.8 525.6,258.3 525.8,255.7 	"/>
	<polygon class="st20" points="608.1,271.9 608,274.5 586.5,284.6 586.6,282 	"/>
	<polygon class="st21" points="581,281.8 580.8,284.4 525.5,255.5 525.7,252.9 	"/>
	<polygon class="st20" points="608.7,268.8 608.6,271.4 580.8,284.4 581,281.8 	"/>
	<path class="st25" d="M525.7,252.9l27.7-13l55.3,28.8l-27.8,13L525.7,252.9z M601.7,268.6l-48.8-25.5l-21.5,10l48.8,25.5
		L601.7,268.6"/>
	<polygon class="st24" points="635.2,259.3 682.6,284 661.1,294 613.7,269.3 	"/>
	<polygon class="st23" points="661.1,294 660.9,296.7 613.5,271.9 613.7,269.3 	"/>
	<polygon class="st22" points="682.6,284 682.5,286.6 660.9,296.7 661.1,294 	"/>
	<polygon class="st21" points="661.9,296.5 661.7,299.1 608.6,271.4 608.7,268.8 	"/>
	<polygon class="st20" points="688.3,284.2 688.1,286.8 661.7,299.1 661.9,296.5 	"/>
	<path class="st25" d="M608.7,268.8l26.4-12.3l53.1,27.7l-26.4,12.3L608.7,268.8z M682.6,284l-47.4-24.7l-21.5,10l47.4,24.7
		L682.6,284"/>
	<polygon class="st21" points="655.5,296.6 655.4,299.3 608,274.5 608.1,271.9 	"/>
	<polygon class="st22" points="574.6,281.2 574.5,283.8 551.5,294.5 551.7,291.9 	"/>
	<polygon class="st23" points="551.7,291.9 551.5,294.5 502.7,269 502.9,266.4 	"/>
	<polygon class="st24" points="525.8,255.7 574.6,281.2 551.7,291.9 502.9,266.4 	"/>
	<polygon class="st20" points="581,281.8 580.8,284.4 552.3,297.6 552.5,295 	"/>
	<polygon class="st21" points="552.5,295 552.3,297.6 497.1,268.8 497.2,266.2 	"/>
	<path class="st25" d="M497.2,266.2l28.5-13.3l55.3,28.8l-28.5,13.3L497.2,266.2z M574.6,281.2l-48.8-25.5l-22.9,10.7l48.8,25.5
		L574.6,281.2"/>
	<polygon class="st22" points="655.5,296.6 655.4,299.3 633.8,309.3 634,306.7 	"/>
	<polygon class="st23" points="634,306.7 633.8,309.3 586.5,284.6 586.6,282 	"/>
	<path class="st25" d="M581,281.8l27.8-13l53.1,27.7l-27.8,13L581,281.8z M655.5,296.6L608.1,272l-21.5,10l47.4,24.7L655.5,296.6"/>
	<polygon class="st24" points="608.2,271.9 655.5,296.6 634,306.7 586.6,282 	"/>
	<polygon class="st21" points="634.1,309.5 634,312.1 580.8,284.4 581,281.8 	"/>
	<polygon class="st20" points="661.9,296.5 661.7,299.1 634,312.1 634.1,309.5 	"/>
</g>
<g>
	<polygon class="st20" points="497.3,269 497.2,271.6 475.6,281.6 475.8,279 	"/>
	<polygon class="st21" points="546.1,294.5 546,297.1 497.2,271.6 497.3,269 	"/>
	<polygon class="st22" points="546.1,294.5 546,297.1 524.5,307.1 524.6,304.5 	"/>
	<polygon class="st23" points="524.6,304.5 524.5,307.1 475.6,281.6 475.8,279 	"/>
	<path class="st25" d="M470.2,278.8l27.1-12.6l55.3,28.8l-27.1,12.6L470.2,278.8z M546.1,294.5L497.3,269l-21.5,10l48.8,25.5
		L546.1,294.5"/>
	<polygon class="st24" points="497.3,269 546.1,294.5 524.6,304.5 475.8,279 	"/>
	<polygon class="st21" points="525.4,307.7 525.3,310.3 470,281.4 470.1,278.8 	"/>
	<polygon class="st20" points="552.5,295 552.3,297.6 525.3,310.3 525.4,307.7 	"/>
</g>
<g>
	<polygon class="st20" points="470.2,281.6 470.1,284.2 447.2,294.9 447.3,292.3 	"/>
	<polygon class="st21" points="519.1,307.1 518.9,309.7 470.1,284.2 470.2,281.6 	"/>
	<polygon class="st22" points="519.1,307.1 518.9,309.7 496,320.4 496.2,317.8 	"/>
	<polygon class="st23" points="496.2,317.8 496,320.4 447.2,294.9 447.3,292.3 	"/>
	<path class="st25" d="M442.4,291.8l27.8-13l55.2,28.8l-27.8,13L442.4,291.8z M519.1,307.1l-48.8-25.5l-22.9,10.7l48.8,25.5
		L519.1,307.1"/>
	<polygon class="st24" points="470.3,281.6 519.1,307.1 496.2,317.8 447.3,292.3 	"/>
	<polygon class="st21" points="497.7,320.6 497.5,323.2 442.2,294.4 442.4,291.8 	"/>
	<polygon class="st20" points="525.4,307.7 525.3,310.3 497.5,323.2 497.7,320.6 	"/>
</g>
<g>
	<polygon class="st20" points="581.1,284.5 580.9,287.2 558,297.8 558.2,295.2 	"/>
	<polygon class="st21" points="628.4,309.3 628.3,311.9 580.9,287.2 581.1,284.5 	"/>
	<polygon class="st22" points="628.5,309.3 628.3,311.9 605.4,322.6 605.5,320 	"/>
	<polygon class="st23" points="605.5,320 605.4,322.6 558,297.8 558.2,295.2 	"/>
	<path class="st25" d="M552.5,295l28.5-13.3l53.1,27.7l-28.5,13.3L552.5,295z M628.4,309.3l-47.4-24.7l-22.9,10.7l47.4,24.7
		L628.4,309.3"/>
	<polygon class="st24" points="581.1,284.5 628.5,309.3 605.5,320 558.2,295.2 	"/>
	<polygon class="st21" points="605.6,322.8 605.5,325.4 552.3,297.6 552.5,295 	"/>
	<polygon class="st20" points="634.1,309.5 634,312.1 605.5,325.4 605.6,322.8 	"/>
</g>
<g>
	<polygon class="st20" points="552.6,297.8 552.5,300.4 530.9,310.5 531.1,307.9 	"/>
	<polygon class="st21" points="600,322.5 599.8,325.1 552.5,300.4 552.6,297.8 	"/>
	<polygon class="st24" points="552.6,297.8 600,322.5 578.5,332.6 531.1,307.9 	"/>
	<polygon class="st22" points="600,322.5 599.8,325.1 578.3,335.2 578.5,332.6 	"/>
	<polygon class="st23" points="578.5,332.6 578.3,335.2 530.9,310.5 531.1,307.9 	"/>
	<polygon class="st21" points="578.6,335.4 578.4,338 525.3,310.3 525.4,307.7 	"/>
	<polygon class="st20" points="605.6,322.8 605.5,325.4 578.4,338 578.6,335.4 	"/>
	<path class="st25" d="M525.4,307.7l27.1-12.6l53.1,27.7l-27.1,12.6L525.4,307.7z M600,322.5l-47.4-24.7l-21.5,10l47.4,24.8
		L600,322.5"/>
</g>
<g>
	<polygon class="st20" points="525.5,310.5 525.4,313.1 502.5,323.7 502.6,321.1 	"/>
	<polygon class="st21" points="572.9,335.2 572.8,337.8 525.4,313.1 525.5,310.5 	"/>
	<polygon class="st24" points="525.5,310.5 572.9,335.2 550,345.9 502.6,321.1 	"/>
	<polygon class="st22" points="572.9,335.2 572.8,337.8 549.8,348.5 550,345.9 	"/>
	<polygon class="st23" points="550,345.9 549.8,348.5 502.5,323.7 502.6,321.1 	"/>
	<polygon class="st21" points="550.8,348.3 550.6,350.9 497.5,323.2 497.7,320.6 	"/>
	<polygon class="st20" points="578.6,335.4 578.4,338 550.6,350.9 550.8,348.3 	"/>
	<path class="st25" d="M497.7,320.6l27.8-13l53.1,27.7l-27.8,13L497.7,320.6z M572.9,335.2l-47.4-24.7l-22.9,10.7l47.4,24.7
		L572.9,335.2"/>
</g>
<g>
	<polygon class="st20" points="442.5,294.6 442.3,297.2 421.5,306.9 421.6,304.3 	"/>
	<polygon class="st21" points="491.3,320 491.1,322.6 442.3,297.2 442.5,294.6 	"/>
	<polygon class="st24" points="442.5,294.6 491.3,320 470.5,329.7 421.6,304.3 	"/>
	<polygon class="st22" points="491.3,320 491.1,322.6 470.3,332.4 470.5,329.7 	"/>
	<polygon class="st23" points="470.5,329.7 470.3,332.4 421.5,306.9 421.6,304.3 	"/>
	<polygon class="st21" points="471.3,332.9 471.1,335.5 415.8,306.7 416,304.1 	"/>
	<polygon class="st20" points="497.7,320.6 497.5,323.2 471.1,335.5 471.3,332.9 	"/>
	<path class="st25" d="M416,304.1l26.4-12.3l55.3,28.8L471.3,333L416,304.1z M491.3,320.1l-48.9-25.5l-20.8,9.7l48.8,25.5
		L491.3,320.1"/>
</g>
<g>
	<polygon class="st20" points="497.8,323.4 497.6,326 476.8,335.7 476.9,333.1 	"/>
	<polygon class="st21" points="545.1,348.1 545,350.7 497.6,326 497.8,323.4 	"/>
	<polygon class="st24" points="497.8,323.4 545.1,348.1 524.3,357.8 476.9,333.1 	"/>
	<polygon class="st22" points="545.1,348.1 545,350.7 524.2,360.4 524.3,357.8 	"/>
	<polygon class="st23" points="524.3,357.8 524.2,360.4 476.8,335.7 476.9,333.1 	"/>
	<polygon class="st21" points="524.4,360.6 524.3,363.2 471.1,335.5 471.3,332.9 	"/>
	<polygon class="st20" points="550.8,348.3 550.6,350.9 524.3,363.2 524.4,360.6 	"/>
	<path class="st25" d="M471.3,333l26.4-12.3l53.1,27.7l-26.4,12.3L471.3,333z M545.1,348.2l-47.4-24.7l-20.8,9.7l47.4,24.7
		L545.1,348.2"/>
</g>
<g>
	<polygon class="st14" points="416.1,306.9 415.9,309.5 393.7,319.8 393.9,317.2 	"/>
	<polygon class="st15" points="464.9,332.3 464.8,334.9 415.9,309.5 416.1,306.9 	"/>
	<polygon class="st17" points="464.9,332.3 464.8,334.9 442.5,345.3 442.7,342.7 	"/>
	<polygon class="st16" points="442.7,342.7 442.5,345.3 393.7,319.8 393.9,317.2 	"/>
	<path class="st18" d="M388.2,317l27.8-13l55.3,28.9l-27.8,13L388.2,317z M464.9,332.3l-48.8-25.5l-22.2,10.4l48.8,25.5L464.9,332.3
		"/>
	<polygon class="st19" points="416.1,306.9 464.9,332.3 442.7,342.7 393.9,317.2 	"/>
	<polygon class="st15" points="443.5,345.9 443.4,348.5 388.1,319.6 388.2,317 	"/>
	<polygon class="st14" points="471.3,332.9 471.1,335.5 443.4,348.5 443.5,345.9 	"/>
</g>
<g>
	<polygon class="st14" points="471.4,335.7 471.2,338.3 449,348.7 449.1,346.1 	"/>
	<polygon class="st15" points="518.8,360.4 518.6,363 471.2,338.3 471.4,335.7 	"/>
	<polygon class="st17" points="518.8,360.4 518.6,363 496.4,373.4 496.5,370.8 	"/>
	<polygon class="st16" points="496.5,370.8 496.4,373.4 449,348.7 449.2,346.1 	"/>
	<path class="st18" d="M443.5,345.9l27.8-12.9l53.1,27.7l-27.8,13L443.5,345.9z M518.7,360.4l-47.3-24.7l-22.2,10.4l47.4,24.7
		L518.7,360.4"/>
	<polygon class="st19" points="471.4,335.7 518.8,360.4 496.5,370.8 449.2,346.1 	"/>
	<polygon class="st15" points="496.6,373.6 496.5,376.2 443.4,348.5 443.5,345.9 	"/>
	<polygon class="st14" points="524.4,360.6 524.3,363.2 496.5,376.2 496.6,373.6 	"/>
</g>
<g>
	<polygon class="st14" points="388.3,319.8 388.2,322.4 365.3,333.1 365.4,330.5 	"/>
	<polygon class="st15" points="437.1,345.3 437,347.9 388.2,322.4 388.3,319.8 	"/>
	<polygon class="st19" points="388.3,319.8 437.1,345.3 414.2,356 365.4,330.5 	"/>
	<polygon class="st17" points="437.1,345.3 437,347.9 414.1,358.6 414.2,356 	"/>
	<polygon class="st16" points="414.2,356 414.1,358.6 365.3,333.1 365.4,330.5 	"/>
	<polygon class="st15" points="415,359.1 414.9,361.7 359.6,332.9 359.8,330.3 	"/>
	<polygon class="st14" points="443.5,345.9 443.4,348.5 414.9,361.7 415,359.1 	"/>
	<path class="st18" d="M359.8,330.3l28.5-13.3l55.3,28.8L415,359.1L359.8,330.3z M437.1,345.3l-48.8-25.5l-22.9,10.7l48.8,25.5
		L437.1,345.3"/>
</g>
<g>
	<polygon class="st14" points="360.5,332.8 360.4,335.4 338.2,345.7 338.3,343.1 	"/>
	<polygon class="st15" points="409.4,358.2 409.2,360.8 360.4,335.4 360.5,332.8 	"/>
	<polygon class="st19" points="360.5,332.8 409.4,358.2 387.1,368.6 338.3,343.1 	"/>
	<polygon class="st17" points="409.4,358.2 409.2,360.8 387,371.2 387.1,368.6 	"/>
	<polygon class="st16" points="387.1,368.6 387,371.2 338.2,345.7 338.3,343.1 	"/>
	<polygon class="st15" points="388,371.8 387.8,374.4 332.5,345.5 332.7,342.9 	"/>
	<polygon class="st14" points="415,359.1 414.9,361.7 387.8,374.4 388,371.8 	"/>
	<path class="st18" d="M332.7,343l27.1-12.6l55.3,28.8L388,371.8L332.7,343z M409.4,358.3l-48.8-25.5l-22.2,10.4l48.8,25.5
		L409.4,358.3"/>
</g>
<g>
	<polygon class="st14" points="443.6,348.6 443.5,351.3 420.5,361.9 420.7,359.3 	"/>
	<polygon class="st15" points="491,373.4 490.8,376 443.5,351.3 443.6,348.6 	"/>
	<polygon class="st15" points="468.2,386.9 468,389.5 414.9,361.7 415,359.1 	"/>
	<polygon class="st14" points="415.8,361.6 415.7,364.2 393.5,374.6 393.6,372 	"/>
	<polygon class="st19" points="443.6,348.6 491,373.4 468.1,384 420.7,359.3 	"/>
	<polygon class="st17" points="491,373.4 490.8,376 467.9,386.7 468.1,384 	"/>
	<polygon class="st16" points="468.1,384 467.9,386.7 420.5,361.9 420.7,359.3 	"/>
	<polygon class="st15" points="463.2,386.3 463.1,388.9 415.7,364.2 415.8,361.6 	"/>
	<path class="st18" d="M415,359.1l28.5-13.3l53.1,27.7l-28.5,13.3L415,359.1z M491,373.4l-47.4-24.7l-22.9,10.7l47.4,24.7L491,373.4
		"/>
	<polygon class="st14" points="496.6,373.6 496.5,376.2 468,389.5 468.2,386.9 	"/>
	<polygon class="st19" points="415.8,361.6 463.2,386.3 441,396.7 393.6,372 	"/>
	<polygon class="st17" points="463.2,386.3 463.1,388.9 440.8,399.3 441,396.7 	"/>
	<polygon class="st16" points="441,396.7 440.8,399.3 393.5,374.6 393.6,372 	"/>
	<polygon class="st14" points="468.2,386.9 468,389.5 440.9,402.1 441.1,399.5 	"/>
	<path class="st18" d="M388,371.8l27.1-12.6l53.1,27.7l-27.1,12.6L388,371.8z M463.2,386.3l-47.4-24.7L393.6,372l47.4,24.7
		L463.2,386.3"/>
	<polygon class="st15" points="441.1,399.5 440.9,402.1 387.8,374.4 388,371.8 	"/>
</g>
<g>
	<polygon class="st14" points="882.3,224.2 882.1,226.8 859.2,237.5 859.4,234.9 	"/>
	<polygon class="st15" points="930.4,249.3 930.2,251.9 882.1,226.8 882.3,224.2 	"/>
	<polygon class="st17" points="930.4,249.3 930.2,251.9 907.3,262.6 907.5,260 	"/>
	<polygon class="st16" points="907.5,260 907.3,262.6 859.2,237.5 859.4,234.9 	"/>
	<path class="st18" d="M853.7,234.7l28.5-13.3l56,29.2L909.7,264L853.7,234.7z M930.4,249.3l-48.1-25.1l-23,10.7l48.1,25.1
		L930.4,249.3"/>
	<polygon class="st19" points="882.3,224.2 930.4,249.3 907.5,260 859.4,234.9 	"/>
	<polygon class="st15" points="909.7,263.9 909.6,266.5 853.6,237.3 853.7,234.7 	"/>
	<polygon class="st14" points="938.2,250.7 938,253.3 909.6,266.5 909.7,263.9 	"/>
</g>
<g>
	<polygon class="st14" points="854.5,237.2 854.3,239.8 831.4,250.5 831.6,247.9 	"/>
	<polygon class="st15" points="902.6,262.3 902.5,264.9 854.3,239.8 854.5,237.2 	"/>
	<polygon class="st14" points="938.3,253.4 938.1,256 915.2,266.7 915.4,264.1 	"/>
	<polygon class="st14" points="826,250.5 825.9,253.1 803.7,263.4 803.8,260.8 	"/>
	<polygon class="st15" points="985.7,278.2 985.5,280.8 938.1,256 938.3,253.4 	"/>
	<polygon class="st19" points="854.5,237.2 902.6,262.3 879.7,273 831.6,247.9 	"/>
	<polygon class="st17" points="902.6,262.3 902.5,264.9 879.5,275.6 879.7,273 	"/>
	<polygon class="st16" points="879.7,273 879.5,275.6 831.5,250.5 831.6,247.9 	"/>
	<polygon class="st15" points="874.1,275.5 874,278.2 825.9,253.1 826,250.5 	"/>
	<polygon class="st15" points="962.8,291.6 962.7,294.3 909.6,266.5 909.7,263.9 	"/>
	<polygon class="st14" points="910.5,266.4 910.3,269 887.4,279.7 887.6,277.1 	"/>
	<polygon class="st14" points="909.7,263.9 909.6,266.5 881.8,279.5 881.9,276.9 	"/>
	<polygon class="st15" points="881.9,276.9 881.8,279.5 825.8,250.3 825.9,247.7 	"/>
	<path class="st18" d="M825.9,247.7l27.8-13l56,29.2l-27.8,13L825.9,247.7z M902.6,262.3l-48.1-25.1l-22.9,10.7l48.1,25.1
		L902.6,262.3"/>
	<polygon class="st20" points="798.3,263.4 798.1,266 776.6,276 776.8,273.5 	"/>
	<polygon class="st17" points="985.7,278.2 985.5,280.8 962.6,291.5 962.8,288.8 	"/>
	<polygon class="st19" points="938.3,253.4 985.7,278.2 962.8,288.8 915.4,264.1 	"/>
	<polygon class="st16" points="962.8,288.8 962.6,291.5 915.2,266.7 915.4,264.1 	"/>
	<polygon class="st15" points="957.9,291.1 957.7,293.7 910.3,269 910.5,266.4 	"/>
	<polygon class="st14" points="991.3,278.4 991.2,281 962.7,294.3 962.8,291.6 	"/>
	<path class="st18" d="M909.7,264l28.5-13.3l53.1,27.7l-28.5,13.3L909.7,264z M985.6,278.2l-47.4-24.7l-22.9,10.7l47.4,24.7
		L985.6,278.2"/>
	<polygon class="st19" points="826,250.5 874.2,275.5 851.9,285.9 803.8,260.8 	"/>
	<polygon class="st16" points="851.9,285.9 851.8,288.5 803.7,263.4 803.8,260.8 	"/>
	<polygon class="st17" points="874.2,275.5 874,278.2 851.8,288.5 851.9,285.9 	"/>
	<polygon class="st21" points="846.4,288.5 846.2,291.1 798.1,266 798.3,263.4 	"/>
	<polygon class="st14" points="882,279.7 881.9,282.3 859.7,292.6 859.8,290 	"/>
	<path class="st18" d="M798.2,260.6l27.8-12.9l56,29.2l-27.8,13L798.2,260.6z M874.2,275.5l-48.1-25.1l-22.3,10.4l48.1,25.1
		L874.2,275.5"/>
	<polygon class="st14" points="881.9,276.9 881.8,279.5 854,292.4 854.2,289.8 	"/>
	<polygon class="st15" points="854.2,289.8 854,292.4 798,263.2 798.2,260.6 	"/>
	<polygon class="st17" points="957.9,291.1 957.7,293.7 934.8,304.4 935,301.8 	"/>
	<polygon class="st19" points="910.5,266.4 957.9,291.1 935,301.8 887.6,277.1 	"/>
	<polygon class="st16" points="935,301.8 934.8,304.4 887.5,279.7 887.6,277.1 	"/>
	<polygon class="st14" points="962.8,291.6 962.7,294.3 934.9,307.2 935.1,304.6 	"/>
	<path class="st18" d="M881.9,276.9l27.8-13l53.1,27.7l-27.8,13L881.9,276.9z M957.9,291.1l-47.4-24.7l-22.9,10.7l47.4,24.7
		L957.9,291.1"/>
	<polygon class="st15" points="935.1,304.6 934.9,307.2 881.8,279.5 881.9,276.9 	"/>
	<polygon class="st15" points="929.4,304.4 929.3,307 881.9,282.3 882,279.7 	"/>
	<polygon class="st23" points="824.8,298.5 824.7,301.1 776.6,276 776.8,273.5 	"/>
	<polygon class="st24" points="798.3,263.4 846.4,288.5 824.8,298.5 776.8,273.5 	"/>
	<polygon class="st22" points="846.4,288.5 846.2,291.1 824.7,301.1 824.8,298.5 	"/>
	<polygon class="st21" points="827.1,302.5 826.9,305.1 770.9,275.9 771.1,273.3 	"/>
	<path class="st25" d="M771.1,273.3l27.1-12.6l56,29.2l-27.1,12.6L771.1,273.3z M846.4,288.5l-48.1-25.1l-21.5,10l48.1,25.1
		L846.4,288.5"/>
	<polygon class="st20" points="854.2,289.8 854,292.4 826.9,305.1 827.1,302.5 	"/>
	<polygon class="st17" points="929.4,304.4 929.3,307 907,317.4 907.2,314.7 	"/>
	<polygon class="st19" points="882,279.7 929.4,304.4 907.2,314.7 859.8,290 	"/>
	<polygon class="st16" points="907.2,314.7 907,317.4 859.7,292.6 859.8,290 	"/>
	<polygon class="st14" points="935.1,304.6 934.9,307.2 907.2,320.1 907.3,317.5 	"/>
	<polygon class="st15" points="907.3,317.5 907.2,320.1 854,292.4 854.2,289.8 	"/>
	<path class="st18" d="M854.2,289.8l27.8-13l53.1,27.7l-27.8,13L854.2,289.8z M929.4,304.4L882,279.7L859.8,290l47.4,24.7
		L929.4,304.4"/>
</g>
<g>
	<polygon class="st20" points="854.3,292.6 854.1,295.2 832.6,305.3 832.8,302.7 	"/>
	<polygon class="st21" points="901.6,317.3 901.5,319.9 854.1,295.2 854.3,292.6 	"/>
	<polygon class="st22" points="901.7,317.3 901.5,319.9 880,330 880.1,327.4 	"/>
	<polygon class="st23" points="880.1,327.4 880,330 832.6,305.3 832.8,302.7 	"/>
	<path class="st25" d="M827.1,302.5l27.1-12.6l53.1,27.7l-27.1,12.6L827.1,302.5z M901.6,317.3l-47.4-24.7l-21.5,10l47.4,24.7
		L901.6,317.3"/>
	<polygon class="st24" points="854.3,292.6 901.7,317.3 880.1,327.4 832.8,302.7 	"/>
	<polygon class="st21" points="880.2,330.2 880.1,332.8 826.9,305.1 827.1,302.5 	"/>
	<polygon class="st20" points="907.3,317.5 907.2,320.1 880.1,332.8 880.2,330.2 	"/>
</g>
<g>
	<polygon class="st20" points="771.2,276 771,278.6 750.9,288 751.1,285.4 	"/>
	<polygon class="st21" points="819.3,301.1 819.1,303.7 771,278.6 771.2,276 	"/>
	<polygon class="st22" points="819.3,301.1 819.2,303.7 799,313.1 799.2,310.5 	"/>
	<polygon class="st23" points="799.2,310.5 799,313.1 750.9,288 751.1,285.4 	"/>
	<path class="st25" d="M745.4,285.2l25.7-12l56,29.2l-25.7,12L745.4,285.2z M819.3,301.1L771.2,276l-20.1,9.4l48.1,25.1L819.3,301.1
		"/>
	<polygon class="st24" points="771.2,276 819.3,301.1 799.2,310.5 751.1,285.4 	"/>
	<polygon class="st21" points="801.4,314.4 801.3,317 745.3,287.8 745.4,285.2 	"/>
	<polygon class="st20" points="827.1,302.5 826.9,305.1 801.3,317 801.4,314.4 	"/>
</g>
<g>
	<polygon class="st20" points="827.2,305.3 827,307.9 806.9,317.2 807.1,314.6 	"/>
	<polygon class="st21" points="874.6,330 874.4,332.6 827,307.9 827.2,305.3 	"/>
	<polygon class="st24" points="827.2,305.3 874.6,330 854.4,339.4 807.1,314.6 	"/>
	<polygon class="st22" points="874.6,330 874.4,332.6 854.3,342 854.4,339.4 	"/>
	<polygon class="st23" points="854.4,339.4 854.3,342 806.9,317.2 807.1,314.6 	"/>
	<polygon class="st21" points="854.5,342.1 854.4,344.8 801.3,317 801.4,314.4 	"/>
	<polygon class="st20" points="880.2,330.2 880.1,332.8 854.4,344.8 854.5,342.1 	"/>
	<path class="st25" d="M801.4,314.4l25.7-12l53.1,27.7l-25.7,12L801.4,314.4z M874.6,330l-47.4-24.7l-20.1,9.4l47.4,24.7L874.6,330"
		/>
</g>
<g>
	<polygon class="st20" points="745.5,288 745.3,290.6 721.8,301.6 721.9,299 	"/>
	<polygon class="st21" points="793.6,313.1 793.5,315.7 745.3,290.6 745.5,288 	"/>
	<polygon class="st22" points="793.6,313.1 793.5,315.7 769.8,326.7 770,324.1 	"/>
	<polygon class="st24" points="745.5,288 793.6,313.1 770,324.1 721.9,299 	"/>
	<polygon class="st23" points="770,324.1 769.8,326.7 721.8,301.6 721.9,299 	"/>
	<polygon class="st20" points="801.5,317.2 801.3,319.8 777.8,330.8 777.9,328.2 	"/>
	<polygon class="st20" points="801.4,314.4 801.3,317 772.1,330.6 772.3,328 	"/>
	<path class="st25" d="M716.3,298.8l29.2-13.6l56,29.2L772.3,328L716.3,298.8z M793.6,313.1L745.5,288l-23.6,11l48.1,25.1
		L793.6,313.1"/>
	<polygon class="st21" points="772.3,328 772.1,330.6 716.1,301.4 716.3,298.8 	"/>
	<polygon class="st21" points="848.9,341.9 848.7,344.5 801.3,319.8 801.5,317.2 	"/>
	<polygon class="st22" points="848.9,341.9 848.7,344.5 825.1,355.5 825.3,353 	"/>
	<polygon class="st24" points="801.5,317.2 848.9,341.9 825.3,353 777.9,328.2 	"/>
	<polygon class="st23" points="825.3,353 825.1,355.5 777.8,330.8 777.9,328.2 	"/>
	<path class="st25" d="M772.3,328l29.2-13.6l53.1,27.7l-29.1,13.6L772.3,328z M848.9,342l-47.4-24.7l-23.6,11l47.4,24.7L848.9,342"
		/>
	<polygon class="st20" points="854.5,342.1 854.4,344.8 825.2,358.4 825.4,355.7 	"/>
	<polygon class="st21" points="825.4,355.7 825.2,358.4 772.1,330.6 772.3,328 	"/>
</g>
<g>
	<polygon class="st20" points="716.3,301.6 716.2,304.2 694.7,314.3 694.8,311.6 	"/>
	<polygon class="st21" points="764.4,326.7 764.3,329.3 716.2,304.2 716.3,301.6 	"/>
	<polygon class="st24" points="716.3,301.6 764.5,326.7 742.9,336.7 694.8,311.6 	"/>
	<polygon class="st22" points="764.5,326.7 764.3,329.3 742.8,339.4 742.9,336.7 	"/>
	<polygon class="st23" points="742.9,336.7 742.8,339.4 694.7,314.3 694.8,311.6 	"/>
	<polygon class="st21" points="745.9,340.3 745.7,342.9 689.7,313.7 689.9,311.1 	"/>
	<polygon class="st20" points="772.3,328 772.1,330.6 745.7,342.9 745.9,340.3 	"/>
	<path class="st25" d="M689.9,311.1l26.4-12.3l56,29.2l-26.4,12.3L689.9,311.1z M764.4,326.7l-48.1-25.1l-21.5,10l48.1,25.1
		L764.4,326.7"/>
</g>
<g>
	<polygon class="st20" points="689.3,314.2 689.1,316.9 667.6,326.9 667.7,324.3 	"/>
	<polygon class="st21" points="737.4,339.3 737.2,341.9 689.1,316.9 689.3,314.2 	"/>
	<polygon class="st20" points="772.3,330.8 772.2,333.4 750.7,343.5 750.8,340.9 	"/>
	<polygon class="st20" points="662.2,326.9 662,329.5 639.1,340.1 639.3,337.5 	"/>
	<polygon class="st23" points="715.8,349.4 715.7,352 667.6,326.9 667.7,324.3 	"/>
	<polygon class="st22" points="737.4,339.3 737.2,341.9 715.7,352 715.8,349.4 	"/>
	<polygon class="st24" points="689.3,314.2 737.4,339.3 715.8,349.4 667.7,324.3 	"/>
	<polygon class="st21" points="819.7,355.5 819.6,358.1 772.2,333.4 772.3,330.8 	"/>
	<polygon class="st21" points="710.3,352 710.1,354.6 662,329.5 662.2,326.9 	"/>
	<polygon class="st20" points="745.3,343.5 745.1,346.1 723.6,356.1 723.7,353.5 	"/>
	<path class="st25" d="M662.1,324.1l27.8-13l56,29.2l-27.8,13L662.1,324.1z M737.4,339.3l-48.1-25.1l-21.5,10l48.1,25.1L737.4,339.3
		"/>
	<polygon class="st20" points="745.9,340.3 745.7,342.9 718,355.9 718.1,353.3 	"/>
	<polygon class="st21" points="718.1,353.3 718,355.9 662,326.7 662.1,324.1 	"/>
	<polygon class="st22" points="819.7,355.5 819.6,358.1 798,368.2 798.2,365.6 	"/>
	<polygon class="st24" points="772.3,330.8 819.7,355.5 798.2,365.6 750.8,340.9 	"/>
	<polygon class="st23" points="798.2,365.6 798,368.2 750.7,343.5 750.8,340.9 	"/>
	<polygon class="st21" points="799,368 798.8,370.6 745.7,342.9 745.9,340.3 	"/>
	<polygon class="st20" points="825.4,355.7 825.2,358.4 798.8,370.6 799,368 	"/>
	<path class="st25" d="M745.9,340.3l26.4-12.3l53.2,27.7L799,368L745.9,340.3z M819.7,355.5l-47.4-24.7l-21.5,10l47.4,24.7
		L819.7,355.5"/>
	<polygon class="st21" points="792.7,368.2 792.5,370.8 745.1,346.1 745.3,343.5 	"/>
	<polygon class="st22" points="710.3,352 710.1,354.6 687.2,365.3 687.4,362.6 	"/>
	<polygon class="st23" points="687.4,362.6 687.2,365.3 639.1,340.1 639.3,337.5 	"/>
	<path class="st25" d="M633.6,337.3l28.5-13.3l56,29.2l-28.5,13.3L633.6,337.3z M710.3,352l-48.1-25.1l-22.9,10.7l48.1,25.1
		L710.3,352"/>
	<polygon class="st24" points="662.2,326.9 710.3,352 687.4,362.6 639.3,337.5 	"/>
	<polygon class="st20" points="718.1,353.3 718,355.9 689.5,369.2 689.6,366.6 	"/>
	<polygon class="st21" points="689.6,366.6 689.5,369.2 633.5,340 633.6,337.4 	"/>
	<polygon class="st22" points="792.7,368.2 792.5,370.8 771,380.8 771.1,378.2 	"/>
	<polygon class="st23" points="771.1,378.2 771,380.8 723.6,356.1 723.7,353.5 	"/>
	<polygon class="st24" points="745.3,343.5 792.7,368.2 771.1,378.2 723.7,353.5 	"/>
	<polygon class="st21" points="771.2,381 771.1,383.6 718,355.9 718.1,353.3 	"/>
	<path class="st25" d="M718.1,353.3l27.8-13L799,368L771.2,381L718.1,353.3z M792.6,368.2l-47.4-24.7l-21.5,10l47.4,24.7
		L792.6,368.2"/>
	<polygon class="st20" points="799,368 798.8,370.6 771.1,383.6 771.2,381 	"/>
</g>
<g>
	<polygon class="st26" points="633.7,340.1 633.6,342.7 612,352.8 612.2,350.2 	"/>
	<polygon class="st27" points="681.8,365.2 681.7,367.8 633.6,342.7 633.7,340.1 	"/>
	<polygon class="st20" points="718.2,356.1 718,358.7 695.1,369.4 695.3,366.8 	"/>
	<polygon class="st21" points="765.6,380.8 765.4,383.4 718,358.7 718.2,356.1 	"/>
	<polygon class="st28" points="681.8,365.2 681.7,367.8 660.2,377.9 660.3,375.3 	"/>
	<polygon class="st29" points="660.3,375.3 660.2,377.9 612,352.8 612.2,350.2 	"/>
	<path class="st30" d="M606.6,350l27.1-12.6l56,29.2l-27.1,12.6L606.6,350z M681.8,365.2l-48.1-25.1l-21.5,10l48.1,25.1L681.8,365.2
		"/>
	<polygon class="st31" points="633.7,340.1 681.8,365.2 660.3,375.3 612.2,350.2 	"/>
	<polygon class="st26" points="689.7,369.4 689.6,372 668,382 668.2,379.4 	"/>
	<polygon class="st26" points="689.6,366.6 689.5,369.2 662.4,381.8 662.6,379.2 	"/>
	<polygon class="st27" points="662.6,379.2 662.4,381.8 606.4,352.6 606.6,350 	"/>
	<polygon class="st23" points="742.7,391.5 742.5,394.1 695.1,369.4 695.3,366.8 	"/>
	<polygon class="st22" points="765.6,380.8 765.4,383.4 742.5,394.1 742.7,391.5 	"/>
	<path class="st25" d="M689.6,366.6l28.5-13.3l53.1,27.7l-28.5,13.3L689.6,366.6z M765.6,380.8l-47.4-24.7l-22.9,10.7l47.4,24.7
		L765.6,380.8"/>
	<polygon class="st24" points="718.2,356.1 765.6,380.8 742.7,391.5 695.3,366.8 	"/>
	<polygon class="st20" points="771.2,381 771.1,383.6 742.6,396.9 742.8,394.3 	"/>
	<polygon class="st21" points="742.8,394.3 742.6,396.9 689.5,369.2 689.6,366.6 	"/>
	<polygon class="st27" points="737.1,394.1 737,396.7 689.6,372 689.7,369.4 	"/>
	<polygon class="st31" points="689.7,369.4 737.1,394.1 715.6,404.1 668.2,379.4 	"/>
	<polygon class="st29" points="715.6,404.1 715.4,406.7 668,382 668.2,379.4 	"/>
	<polygon class="st28" points="737.1,394.1 737,396.7 715.4,406.7 715.6,404.1 	"/>
	<path class="st30" d="M662.5,379.2l27.1-12.6l53.1,27.7l-27.1,12.6L662.5,379.2z M737.1,394.1l-47.4-24.7l-21.5,10l47.4,24.7
		L737.1,394.1"/>
	<polygon class="st26" points="742.8,394.3 742.6,396.9 715.5,409.5 715.7,406.9 	"/>
	<polygon class="st27" points="715.7,406.9 715.5,409.5 662.4,381.8 662.6,379.2 	"/>
</g>
<g>
	<polygon class="st32" points="606.7,352.8 606.5,355.4 583.6,366 583.7,363.5 	"/>
	<polygon class="st33" points="654.8,377.9 654.6,380.5 606.5,355.4 606.7,352.8 	"/>
	<polygon class="st32" points="578.9,365.7 578.7,368.3 557.9,378 558,375.4 	"/>
	<polygon class="st15" points="606.7,352.8 654.8,377.9 631.8,388.5 583.7,363.5 	"/>
	<polygon class="st34" points="654.8,377.9 654.6,380.5 631.7,391.1 631.8,388.5 	"/>
	<polygon class="st35" points="631.8,388.5 631.7,391.1 583.6,366 583.7,363.5 	"/>
	<polygon class="st33" points="627,390.8 626.8,393.4 578.7,368.3 578.9,365.7 	"/>
	<path class="st36" d="M578.8,363l27.8-13l56,29.2l-27.8,13L578.8,363z M654.8,377.9l-48.1-25.1l-22.9,10.7l48.1,25.1L654.8,377.9"
		/>
	<polygon class="st33" points="634.8,392.1 634.6,394.7 578.6,365.5 578.8,362.9 	"/>
	<polygon class="st32" points="662.6,379.2 662.4,381.8 634.6,394.7 634.8,392.1 	"/>
	<polygon class="st34" points="627,390.8 626.8,393.4 606,403.1 606.2,400.5 	"/>
	<polygon class="st35" points="606.2,400.5 606,403.1 557.9,378 558,375.4 	"/>
	<path class="st36" d="M552.4,375.2l26.4-12.3l56,29.2l-26.4,12.3L552.4,375.2z M627,390.8l-48.1-25.1l-20.8,9.7l48.1,25.1
		L627,390.8"/>
	<polygon class="st15" points="578.9,365.7 627,390.8 606.2,400.5 558,375.4 	"/>
	<polygon class="st32" points="634.8,392.1 634.6,394.7 608.3,407 608.4,404.4 	"/>
	<polygon class="st33" points="608.4,404.4 608.3,407 552.3,377.8 552.4,375.2 	"/>
</g>
<g>
	<polygon class="st32" points="662.7,382 662.5,384.6 639.6,395.3 639.7,392.7 	"/>
	<polygon class="st33" points="710,406.7 709.9,409.3 662.5,384.6 662.7,382 	"/>
	<polygon class="st15" points="662.7,382 710,406.7 687.1,417.4 639.7,392.7 	"/>
	<polygon class="st34" points="710,406.7 709.9,409.3 687,420 687.1,417.4 	"/>
	<polygon class="st35" points="687.1,417.4 687,420 639.6,395.3 639.7,392.7 	"/>
	<polygon class="st33" points="687.9,419.8 687.8,422.5 634.6,394.7 634.8,392.1 	"/>
	<polygon class="st32" points="715.7,406.9 715.5,409.5 687.8,422.5 687.9,419.8 	"/>
	<path class="st36" d="M634.8,392.1l27.8-13l53.1,27.7l-27.8,13L634.8,392.1z M710,406.7L662.6,382l-22.9,10.7l47.4,24.7L710,406.7"
		/>
</g>
<g>
	<polygon class="st32" points="552.5,378 552.3,380.6 530.1,391 530.3,388.4 	"/>
	<polygon class="st33" points="600.6,403.1 600.5,405.7 552.3,380.6 552.5,378 	"/>
	<polygon class="st32" points="634.9,394.9 634.7,397.5 613.9,407.2 614,404.6 	"/>
	<polygon class="st32" points="524.7,391 524.6,393.6 501.7,404.3 501.8,401.6 	"/>
	<polygon class="st35" points="578.4,413.5 578.2,416.1 530.1,391 530.3,388.4 	"/>
	<polygon class="st34" points="600.6,403.1 600.5,405.7 578.2,416.1 578.4,413.5 	"/>
	<polygon class="st15" points="552.5,378 600.6,403.1 578.4,413.5 530.3,388.4 	"/>
	<polygon class="st33" points="682.3,419.6 682.1,422.3 634.7,397.5 634.9,394.9 	"/>
	<polygon class="st33" points="572.8,416.1 572.7,418.7 524.6,393.6 524.7,391 	"/>
	<polygon class="st32" points="608.5,407.2 608.3,409.8 586.1,420.2 586.3,417.6 	"/>
	<path class="st36" d="M524.6,388.2l27.8-12.9l56,29.2l-27.8,13L524.6,388.2z M600.6,403.1L552.5,378l-22.2,10.4l48.1,25.1
		L600.6,403.1"/>
	<polygon class="st32" points="608.4,404.4 608.3,407 580.5,420 580.6,417.4 	"/>
	<polygon class="st33" points="580.6,417.4 580.5,420 524.5,390.8 524.6,388.2 	"/>
	<polygon class="st33" points="552.2,430.7 552,433.3 496,404.1 496.2,401.5 	"/>
	<polygon class="st32" points="497,403.9 496.8,406.5 474.6,416.9 474.7,414.3 	"/>
	<polygon class="st34" points="682.3,419.6 682.1,422.2 661.3,432 661.4,429.4 	"/>
	<polygon class="st35" points="661.4,429.4 661.3,432 613.9,407.2 614,404.6 	"/>
	<path class="st36" d="M608.4,404.4l26.4-12.3l53.1,27.7l-26.4,12.3L608.4,404.4z M682.3,419.6L634.9,395l-20.8,9.7l47.4,24.7
		L682.3,419.6"/>
	<polygon class="st15" points="634.9,394.9 682.3,419.6 661.4,429.4 614,404.6 	"/>
	<polygon class="st32" points="687.9,419.8 687.8,422.5 661.4,434.8 661.5,432.1 	"/>
	<polygon class="st33" points="661.5,432.1 661.4,434.8 608.3,407 608.4,404.4 	"/>
	<polygon class="st33" points="655.9,431.9 655.7,434.5 608.3,409.8 608.5,407.2 	"/>
	<polygon class="st35" points="549.9,426.7 549.8,429.4 501.7,404.3 501.8,401.6 	"/>
	<polygon class="st34" points="572.8,416.1 572.7,418.7 549.8,429.4 549.9,426.7 	"/>
	<path class="st36" d="M496.2,401.5l28.5-13.3l56,29.2l-28.5,13.3L496.2,401.5z M572.8,416.1L524.7,391l-22.9,10.7l48.1,25.1
		L572.8,416.1"/>
	<polygon class="st15" points="524.7,391 572.8,416.1 549.9,426.7 501.8,401.6 	"/>
	<polygon class="st33" points="545.1,429 544.9,431.6 496.8,406.5 497,403.9 	"/>
	<polygon class="st32" points="580.6,417.4 580.5,420 552,433.3 552.2,430.7 	"/>
	<polygon class="st34" points="655.9,431.9 655.7,434.5 633.5,444.9 633.7,442.3 	"/>
	<polygon class="st35" points="633.7,442.3 633.5,444.9 586.1,420.2 586.3,417.6 	"/>
	<path class="st36" d="M580.6,417.4l27.8-12.9l53.1,27.7l-27.8,13L580.6,417.4z M655.9,432l-47.4-24.7l-22.2,10.4l47.4,24.7
		L655.9,432"/>
	<polygon class="st15" points="608.5,407.2 655.9,431.9 633.7,442.3 586.3,417.6 	"/>
	<polygon class="st33" points="633.8,445.1 633.6,447.7 580.5,420 580.6,417.4 	"/>
	<polygon class="st32" points="661.5,432.1 661.4,434.8 633.6,447.7 633.8,445.1 	"/>
	<polygon class="st34" points="545.1,429 544.9,431.6 522.7,442 522.8,439.4 	"/>
	<polygon class="st35" points="522.8,439.4 522.7,442 474.6,416.9 474.7,414.3 	"/>
	<polygon class="st15" points="497,403.9 545.1,429 522.8,439.4 474.7,414.3 	"/>
	<polygon class="st32" points="552.2,430.7 552,433.3 524.9,445.9 525.1,443.3 	"/>
	<path class="st36" d="M469.1,414.1l27.1-12.6l56,29.2l-27.1,12.6L469.1,414.1z M545.1,429L497,404l-22.2,10.4l48.1,25.1L545.1,429"
		/>
	<polygon class="st33" points="525.1,443.3 524.9,445.9 468.9,416.7 469.1,414.1 	"/>
</g>
<g>
	<polygon class="st32" points="580.7,420.2 580.6,422.8 557.7,433.5 557.8,430.9 	"/>
	<polygon class="st33" points="628.1,444.9 628,447.5 580.6,422.8 580.7,420.2 	"/>
	<polygon class="st15" points="580.7,420.2 628.1,444.9 605.2,455.6 557.8,430.9 	"/>
	<polygon class="st34" points="628.1,444.9 628,447.5 605,458.2 605.2,455.6 	"/>
	<polygon class="st35" points="605.2,455.6 605,458.2 557.7,433.5 557.8,430.9 	"/>
	<polygon class="st33" points="605.3,458.4 605.1,461 552,433.3 552.2,430.7 	"/>
	<polygon class="st32" points="633.8,445.1 633.6,447.7 605.1,461 605.3,458.4 	"/>
	<path class="st36" d="M552.2,430.7l28.5-13.3l53.1,27.7l-28.5,13.3L552.2,430.7z M628.1,444.9l-47.4-24.7l-22.9,10.7l47.4,24.7
		L628.1,444.9"/>
</g>
<g>
	<polygon class="st32" points="553,433.1 552.8,435.7 530.6,446.1 530.7,443.5 	"/>
	<polygon class="st33" points="600.3,457.8 600.2,460.4 552.8,435.7 553,433.1 	"/>
	<polygon class="st34" points="600.3,457.8 600.2,460.5 578,470.8 578.1,468.2 	"/>
	<polygon class="st35" points="578.1,468.2 578,470.8 530.6,446.1 530.7,443.5 	"/>
	<path class="st36" d="M525.1,443.3l27.1-12.6l53.1,27.7L578.2,471L525.1,443.3z M600.3,457.8l-47.4-24.7l-22.2,10.4l47.4,24.7
		L600.3,457.8"/>
	<polygon class="st15" points="553,433.1 600.3,457.8 578.1,468.2 530.7,443.5 	"/>
	<polygon class="st33" points="578.2,471 578.1,473.6 524.9,445.9 525.1,443.3 	"/>
	<polygon class="st32" points="605.3,458.4 605.1,461 578.1,473.6 578.2,471 	"/>
</g>
<g>
	<polygon class="st14" points="1018.7,295.4 1018.5,298 995.6,308.7 995.8,306.1 	"/>
	<polygon class="st15" points="1067.5,320.9 1067.3,323.5 1018.5,298 1018.7,295.4 	"/>
	<polygon class="st15" points="1046.8,335.5 1046.7,338.1 990.7,308.9 990.8,306.2 	"/>
	<polygon class="st14" points="990.9,308.3 990.8,310.9 967.8,321.6 968,319 	"/>
	<polygon class="st16" points="1044.6,331.5 1044.4,334.1 995.6,308.7 995.8,306.1 	"/>
	<polygon class="st17" points="1067.5,320.9 1067.3,323.5 1044.4,334.1 1044.6,331.5 	"/>
	<polygon class="st19" points="1018.7,295.4 1067.5,320.9 1044.6,331.5 995.8,306.1 	"/>
	<polygon class="st15" points="1039.7,333.8 1039.6,336.4 990.8,310.9 990.9,308.3 	"/>
	<polygon class="st14" points="1075.4,325 1075.2,327.6 1052.3,338.3 1052.5,335.6 	"/>
	<path class="st18" d="M990.8,306.2l28.5-13.3l56,29.2l-28.5,13.3L990.8,306.2z M1067.5,320.8l-48.8-25.5l-22.9,10.7l48.8,25.5
		L1067.5,320.8"/>
	<polygon class="st14" points="1075.3,322.2 1075.2,324.8 1046.7,338.1 1046.8,335.5 	"/>
	<polygon class="st15" points="1123.5,350.1 1123.3,352.7 1075.2,327.6 1075.4,325 	"/>
	<polygon class="st16" points="1016.8,344.5 1016.7,347.1 967.8,321.6 968,319 	"/>
	<polygon class="st17" points="1039.7,333.8 1039.6,336.4 1016.7,347.1 1016.8,344.5 	"/>
	<polygon class="st19" points="990.9,308.3 1039.7,333.8 1016.8,344.5 968,319 	"/>
	<path class="st18" d="M963.1,319.2l27.8-13l56,29.2l-27.8,13L963.1,319.2z M1039.7,333.8l-48.8-25.5L968,319l48.8,25.5
		L1039.7,333.8"/>
	<polygon class="st14" points="1046.8,335.5 1046.7,338.1 1018.9,351 1019.1,348.4 	"/>
	<polygon class="st15" points="1019.1,348.4 1018.9,351 962.9,321.8 963.1,319.2 	"/>
	<polygon class="st19" points="1075.4,325 1123.5,350.1 1100.6,360.7 1052.5,335.6 	"/>
	<polygon class="st17" points="1123.5,350.1 1123.3,352.7 1100.4,363.4 1100.6,360.7 	"/>
	<polygon class="st16" points="1100.6,360.7 1100.4,363.4 1052.3,338.3 1052.5,335.6 	"/>
	<path class="st18" d="M1046.8,335.5l28.5-13.3l52.4,27.3l-28.5,13.3L1046.8,335.5z M1123.5,350.1l-48.1-25.1l-22.9,10.7l48.1,25.1
		L1123.5,350.1"/>
	<polygon class="st15" points="1099.3,362.8 1099.1,365.4 1046.7,338.1 1046.8,335.5 	"/>
	<polygon class="st14" points="1127.7,349.5 1127.6,352.1 1099.1,365.4 1099.3,362.8 	"/>
</g>
<g>
	<polygon class="st14" points="962.4,321.6 962.3,324.2 940.1,334.6 940.2,332 	"/>
	<polygon class="st15" points="1011.3,347.1 1011.1,349.7 962.3,324.2 962.4,321.6 	"/>
	<polygon class="st19" points="962.5,321.6 1011.3,347.1 989,357.4 940.2,332 	"/>
	<polygon class="st17" points="1011.3,347.1 1011.1,349.7 988.9,360 989,357.4 	"/>
	<polygon class="st16" points="989,357.4 988.9,360 940.1,334.6 940.2,332 	"/>
	<polygon class="st15" points="991.3,361.4 991.2,364 935.1,334.8 935.3,332.1 	"/>
	<polygon class="st14" points="1019.1,348.4 1018.9,351 991.2,364 991.3,361.4 	"/>
	<path class="st18" d="M935.3,332.1l27.8-13l56,29.2l-27.8,13L935.3,332.1z M1011.3,347.1l-48.9-25.5L940.2,332l48.8,25.5
		L1011.3,347.1"/>
</g>
<g>
	<polygon class="st14" points="1047.6,337.9 1047.5,340.5 1024.6,351.2 1024.7,348.6 	"/>
	<polygon class="st15" points="1095.7,363 1095.6,365.6 1047.5,340.5 1047.6,337.9 	"/>
	<polygon class="st14" points="1019.2,351.2 1019,353.8 996.8,364.2 996.9,361.5 	"/>
	<polygon class="st19" points="1047.6,337.9 1095.7,363 1072.8,373.7 1024.7,348.6 	"/>
	<polygon class="st17" points="1095.7,363 1095.6,365.6 1072.7,376.3 1072.8,373.7 	"/>
	<polygon class="st16" points="1072.8,373.7 1072.7,376.3 1024.6,351.2 1024.7,348.6 	"/>
	<polygon class="st15" points="1071.5,375.7 1071.3,378.4 1018.9,351 1019.1,348.4 	"/>
	<path class="st18" d="M1019.1,348.4l27.8-13l52.4,27.3l-27.8,13L1019.1,348.4z M1095.7,363l-48.1-25.1l-22.9,10.7l48.1,25.1
		L1095.7,363"/>
	<polygon class="st14" points="1099.3,362.8 1099.1,365.4 1071.3,378.4 1071.5,375.7 	"/>
	<polygon class="st15" points="1067.3,376.3 1067.1,378.9 1019,353.8 1019.2,351.2 	"/>
	<polygon class="st19" points="1019.2,351.2 1067.3,376.3 1045.1,386.6 997,361.5 	"/>
	<polygon class="st17" points="1067.3,376.3 1067.1,378.9 1044.9,389.3 1045.1,386.6 	"/>
	<polygon class="st16" points="1045.1,386.6 1044.9,389.3 996.8,364.2 997,361.5 	"/>
	<polygon class="st14" points="1071.5,375.7 1071.3,378.4 1043.6,391.3 1043.7,388.7 	"/>
	<path class="st18" d="M991.3,361.3l27.8-13l52.4,27.3l-27.8,13L991.3,361.3z M1067.3,376.3l-48.1-25.1L997,361.5l48.1,25.1
		L1067.3,376.3"/>
	<polygon class="st15" points="1043.7,388.7 1043.6,391.3 991.2,364 991.3,361.4 	"/>
</g>
<g>
	<polygon class="st20" points="934.7,334.6 934.5,337.2 913,347.2 913.2,344.6 	"/>
	<polygon class="st21" points="983.5,360 983.3,362.6 934.5,337.2 934.7,334.6 	"/>
	<polygon class="st20" points="907.6,347.2 907.4,349.8 887.3,359.2 887.5,356.6 	"/>
	<polygon class="st23" points="962,370.1 961.8,372.7 913,347.2 913.2,344.6 	"/>
	<polygon class="st22" points="983.5,360 983.3,362.6 961.8,372.7 962,370.1 	"/>
	<path class="st25" d="M908.2,344.8l27.1-12.6l56,29.2L964.2,374L908.2,344.8z M983.5,360l-48.8-25.5l-21.5,10L962,370L983.5,360"/>
	<polygon class="st24" points="934.7,334.6 983.5,360 962,370.1 913.2,344.6 	"/>
	<polygon class="st21" points="956.4,372.6 956.3,375.3 907.4,349.8 907.6,347.2 	"/>
	<polygon class="st14" points="991.4,364.1 991.2,366.8 969.7,376.8 969.9,374.2 	"/>
	<polygon class="st21" points="964.2,374 964.1,376.6 908.1,347.4 908.2,344.8 	"/>
	<polygon class="st20" points="991.3,361.4 991.2,364 964.1,376.6 964.2,374 	"/>
	<polygon class="st23" points="936.3,382 936.1,384.6 887.3,359.2 887.5,356.6 	"/>
	<polygon class="st24" points="907.6,347.2 956.4,372.6 936.3,382 887.5,356.6 	"/>
	<polygon class="st22" points="956.4,372.6 956.3,375.3 936.1,384.6 936.3,382 	"/>
	<polygon class="st15" points="1039.5,389.2 1039.3,391.8 991.2,366.8 991.4,364.1 	"/>
	<path class="st25" d="M882.5,356.8l25.7-12l56,29.2l-25.7,12L882.5,356.8z M956.4,372.7l-48.8-25.5l-20.2,9.4l48.8,25.5
		L956.4,372.7"/>
	<polygon class="st20" points="964.2,374 964.1,376.6 938.4,388.6 938.5,386 	"/>
	<polygon class="st21" points="938.5,386 938.4,388.6 882.4,359.4 882.5,356.8 	"/>
	<polygon class="st17" points="1039.5,389.2 1039.3,391.8 1017.8,401.9 1018,399.3 	"/>
	<polygon class="st16" points="1018,399.3 1017.8,401.9 969.7,376.8 969.9,374.2 	"/>
	<path class="st18" d="M964.2,374l27.1-12.6l52.4,27.3l-27.1,12.6L964.2,374z M1039.5,389.2l-48.1-25.1l-21.5,10l48.1,25.1
		L1039.5,389.2"/>
	<polygon class="st19" points="991.4,364.1 1039.5,389.2 1018,399.3 969.9,374.2 	"/>
	<polygon class="st15" points="1016.6,401.3 1016.5,403.9 964.1,376.6 964.2,374 	"/>
	<polygon class="st14" points="1043.7,388.7 1043.6,391.3 1016.5,403.9 1016.6,401.3 	"/>
</g>
<g>
	<polygon class="st20" points="881.9,359.2 881.8,361.8 858.2,372.8 858.3,370.2 	"/>
	<polygon class="st21" points="930.7,384.6 930.6,387.2 881.8,361.8 881.9,359.2 	"/>
	<polygon class="st24" points="881.9,359.2 930.7,384.6 907.1,395.6 858.3,370.2 	"/>
	<polygon class="st22" points="930.7,384.6 930.6,387.2 907,398.2 907.1,395.6 	"/>
	<polygon class="st23" points="907.1,395.6 907,398.2 858.2,372.8 858.3,370.2 	"/>
	<polygon class="st21" points="909.4,399.5 909.2,402.2 853.2,373 853.4,370.3 	"/>
	<polygon class="st20" points="938.5,386 938.4,388.6 909.2,402.2 909.4,399.5 	"/>
	<path class="st25" d="M853.4,370.3l29.2-13.6l56,29.2l-29.1,13.6L853.4,370.3z M930.7,384.6l-48.8-25.5l-23.6,11l48.8,25.5
		L930.7,384.6"/>
</g>
<g>
	<polygon class="st14" points="964.3,376.8 964.2,379.4 944,388.8 944.2,386.2 	"/>
	<polygon class="st15" points="1012.4,401.9 1012.3,404.5 964.2,379.4 964.3,376.8 	"/>
	<polygon class="st17" points="1012.4,401.9 1012.3,404.5 992.1,413.9 992.3,411.3 	"/>
	<polygon class="st16" points="992.3,411.3 992.1,413.9 944,388.8 944.2,386.2 	"/>
	<path class="st18" d="M938.5,386l25.7-12l52.4,27.3l-25.7,12L938.5,386z M1012.4,401.8l-48.1-25.1l-20.1,9.4l48.1,25.1
		L1012.4,401.8"/>
	<polygon class="st19" points="964.3,376.8 1012.4,401.9 992.3,411.3 944.2,386.2 	"/>
	<polygon class="st15" points="990.9,413.3 990.8,415.9 938.4,388.6 938.5,386 	"/>
	<polygon class="st14" points="1016.6,401.3 1016.5,403.9 990.8,415.9 990.9,413.3 	"/>
</g>
<g>
	<polygon class="st14" points="938.6,388.8 938.5,391.4 914.9,402.4 915,399.8 	"/>
	<polygon class="st15" points="986.7,413.8 986.6,416.4 938.5,391.4 938.6,388.8 	"/>
	<polygon class="st19" points="938.6,388.8 986.7,413.8 963.1,424.9 915,399.8 	"/>
	<polygon class="st17" points="986.7,413.8 986.6,416.4 963,427.5 963.1,424.9 	"/>
	<polygon class="st16" points="963.1,424.9 963,427.5 914.9,402.4 915,399.8 	"/>
	<polygon class="st15" points="961.8,426.9 961.6,429.5 909.2,402.2 909.4,399.5 	"/>
	<polygon class="st14" points="990.9,413.3 990.8,415.9 961.6,429.5 961.8,426.9 	"/>
	<path class="st18" d="M909.4,399.5l29.1-13.6l52.4,27.3l-29.2,13.6L909.4,399.5z M986.8,413.8l-48.1-25.1l-23.6,11l48.1,25.1
		L986.8,413.8"/>
</g>
<g>
	<polygon class="st20" points="852.8,372.8 852.6,375.4 831.1,385.4 831.2,382.8 	"/>
	<polygon class="st21" points="901.6,398.2 901.4,400.8 852.6,375.4 852.8,372.8 	"/>
	<polygon class="st20" points="825.7,385.4 825.5,388 804,398 804.2,395.4 	"/>
	<polygon class="st24" points="852.8,372.8 901.6,398.2 880,408.3 831.2,382.8 	"/>
	<polygon class="st23" points="880,408.3 879.9,410.9 831.1,385.4 831.2,382.8 	"/>
	<polygon class="st22" points="901.6,398.2 901.4,400.8 879.9,410.9 880,408.3 	"/>
	<polygon class="st21" points="874.5,410.9 874.3,413.5 825.5,388 825.7,385.4 	"/>
	<path class="st25" d="M827,382.7l26.4-12.3l56,29.2L883,411.9L827,382.7z M901.6,398.2l-48.8-25.5l-21.5,10l48.8,25.5L901.6,398.2"
		/>
	<polygon class="st21" points="883,411.9 882.8,414.5 826.8,385.3 827,382.6 	"/>
	<polygon class="st20" points="909.4,399.5 909.2,402.2 882.8,414.5 883,411.9 	"/>
	<polygon class="st14" points="909.5,402.4 909.3,405 887.8,415 887.9,412.4 	"/>
	<polygon class="st23" points="853,420.9 852.8,423.5 804,398 804.2,395.4 	"/>
	<polygon class="st24" points="825.7,385.4 874.5,410.9 853,420.9 804.2,395.4 	"/>
	<polygon class="st22" points="874.5,410.9 874.3,413.5 852.8,423.5 853,420.9 	"/>
	<polygon class="st15" points="957.6,427.4 957.4,430 909.3,405 909.5,402.4 	"/>
	<polygon class="st14" points="882.4,415 882.2,417.6 860.7,427.6 860.9,425 	"/>
	<polygon class="st20" points="883,411.9 882.8,414.5 855.1,427.4 855.2,424.8 	"/>
	<polygon class="st21" points="855.2,424.8 855.1,427.4 799.1,398.2 799.2,395.6 	"/>
	<path class="st25" d="M799.2,395.6l27.8-13l56,29.2l-27.8,13L799.2,395.6z M874.5,410.9l-48.8-25.5l-21.5,10l48.8,25.5L874.5,410.9
		"/>
	<polygon class="st17" points="957.6,427.4 957.4,430 935.9,440.1 936,437.5 	"/>
	<polygon class="st19" points="909.5,402.4 957.6,427.4 936,437.5 888,412.4 	"/>
	<polygon class="st16" points="936,437.5 935.9,440.1 887.8,415 888,412.4 	"/>
	<polygon class="st15" points="935.4,439.2 935.2,441.8 882.8,414.5 883,411.9 	"/>
	<path class="st18" d="M883,411.9l26.4-12.3l52.4,27.3l-26.4,12.3L883,411.9z M957.6,427.4l-48.2-25.1l-21.5,10l48.1,25.1
		L957.6,427.4"/>
	<polygon class="st14" points="961.8,426.9 961.6,429.5 935.2,441.8 935.4,439.2 	"/>
	<polygon class="st15" points="930.5,440.1 930.3,442.7 882.2,417.6 882.4,415 	"/>
	<polygon class="st19" points="882.4,415 930.5,440.1 909,450.1 860.9,425 	"/>
	<polygon class="st16" points="909,450.1 908.8,452.7 860.7,427.6 860.9,425 	"/>
	<polygon class="st17" points="930.5,440.1 930.3,442.7 908.8,452.7 909,450.1 	"/>
	<path class="st18" d="M855.2,424.8l27.8-13l52.4,27.3l-27.8,13L855.2,424.8z M930.5,440.1L882.4,415l-21.5,10L909,450L930.5,440.1"
		/>
	<polygon class="st14" points="935.4,439.2 935.2,441.8 907.5,454.8 907.6,452.1 	"/>
	<polygon class="st15" points="907.6,452.1 907.5,454.8 855.1,427.4 855.2,424.8 	"/>
</g>
<g>
	<polygon class="st20" points="798.6,398 798.4,400.6 775.5,411.3 775.7,408.7 	"/>
	<polygon class="st21" points="847.4,423.5 847.3,426.1 798.4,400.6 798.6,398 	"/>
	<polygon class="st22" points="847.4,423.5 847.3,426.1 824.4,436.8 824.5,434.2 	"/>
	<polygon class="st23" points="824.5,434.2 824.4,436.8 775.5,411.3 775.7,408.7 	"/>
	<path class="st25" d="M770.8,408.9l28.5-13.3l56,29.2l-28.5,13.3L770.8,408.9z M847.4,423.5L798.6,398l-22.9,10.7l48.8,25.5
		L847.4,423.5"/>
	<polygon class="st24" points="798.6,398 847.4,423.5 824.5,434.2 775.7,408.7 	"/>
	<polygon class="st21" points="826.8,438.1 826.6,440.7 770.6,411.5 770.8,408.9 	"/>
	<polygon class="st20" points="855.2,424.8 855.1,427.4 826.6,440.7 826.8,438.1 	"/>
</g>
<g>
	<polygon class="st14" points="855.3,427.6 855.2,430.2 832.3,440.9 832.4,438.3 	"/>
	<polygon class="st15" points="903.4,452.7 903.3,455.3 855.2,430.2 855.3,427.6 	"/>
	<polygon class="st17" points="903.4,452.7 903.3,455.3 880.4,466 880.5,463.4 	"/>
	<polygon class="st16" points="880.5,463.4 880.4,466 832.3,440.9 832.4,438.3 	"/>
	<path class="st18" d="M826.8,438.1l28.5-13.3l52.4,27.3l-28.5,13.3L826.8,438.1z M903.4,452.7l-48.1-25.1l-22.9,10.7l48.1,25.1
		L903.4,452.7"/>
	<polygon class="st19" points="855.3,427.6 903.4,452.7 880.5,463.4 832.4,438.3 	"/>
	<polygon class="st15" points="879.2,465.4 879,468 826.6,440.7 826.8,438.1 	"/>
	<polygon class="st14" points="907.6,452.1 907.5,454.8 879,468 879.2,465.4 	"/>
</g>
<g>
	<polygon class="st26" points="770.1,411.3 770,413.9 748.5,423.9 748.6,421.3 	"/>
	<polygon class="st27" points="819,436.8 818.8,439.4 770,413.9 770.1,411.3 	"/>
	<polygon class="st31" points="770.1,411.3 819,436.8 797.4,446.8 748.6,421.3 	"/>
	<polygon class="st28" points="819,436.8 818.8,439.4 797.3,449.4 797.4,446.8 	"/>
	<polygon class="st29" points="797.4,446.8 797.3,449.4 748.5,423.9 748.6,421.3 	"/>
	<polygon class="st27" points="799.7,450.7 799.5,453.3 743.5,424.1 743.7,421.5 	"/>
	<polygon class="st26" points="826.8,438.1 826.6,440.7 799.5,453.3 799.7,450.7 	"/>
	<path class="st30" d="M743.7,421.5l27.1-12.6l56,29.2l-27.1,12.6L743.7,421.5z M819,436.8l-48.8-25.5l-21.5,10l48.8,25.5L819,436.8
		"/>
</g>
<g>
	<polygon class="st32" points="743,423.9 742.9,426.5 720,437.2 720.1,434.6 	"/>
	<polygon class="st33" points="791.9,449.4 791.7,452 742.9,426.5 743,423.9 	"/>
	<polygon class="st26" points="826.8,440.9 826.7,443.5 805.2,453.5 805.3,450.9 	"/>
	<polygon class="st32" points="715.3,436.9 715.1,439.5 694.3,449.2 694.5,446.6 	"/>
	<polygon class="st27" points="875,466 874.8,468.6 826.7,443.5 826.8,440.9 	"/>
	<polygon class="st35" points="769,460.1 768.8,462.7 720,437.2 720.1,434.6 	"/>
	<polygon class="st34" points="791.9,449.4 791.7,452 768.8,462.7 769,460.1 	"/>
	<polygon class="st15" points="743.1,423.9 791.9,449.4 769,460.1 720.1,434.6 	"/>
	<polygon class="st33" points="764.1,462.3 764,464.9 715.1,439.5 715.3,436.9 	"/>
	<polygon class="st33" points="771.9,463.6 771.8,466.3 715.8,437 715.9,434.4 	"/>
	<polygon class="st32" points="799.7,450.7 799.5,453.3 771.8,466.3 771.9,463.6 	"/>
	<path class="st36" d="M715.9,434.4l27.8-13l56,29.2l-27.8,13L715.9,434.4z M791.9,449.4L743,424l-22.9,10.7l48.8,25.5L791.9,449.4"
		/>
	<polygon class="st32" points="799.8,453.5 799.6,456.1 776.7,466.8 776.9,464.2 	"/>
	<polygon class="st32" points="688.9,449.2 688.8,451.8 666.5,462.1 666.7,459.5 	"/>
	<polygon class="st31" points="826.8,440.9 875,466 853.4,476 805.3,450.9 	"/>
	<polygon class="st29" points="853.4,476 853.3,478.6 805.2,453.5 805.3,450.9 	"/>
	<polygon class="st28" points="875,466 874.8,468.6 853.3,478.6 853.4,476 	"/>
	<polygon class="st27" points="852.1,478 851.9,480.6 799.5,453.3 799.7,450.7 	"/>
	<path class="st30" d="M799.7,450.7l27.1-12.6l52.4,27.3L852.1,478L799.7,450.7z M875,466l-48.1-25.1L805.3,451l48.1,25L875,466"/>
	<polygon class="st26" points="879.2,465.4 879,468 851.9,480.6 852.1,478 	"/>
	<polygon class="st34" points="764.1,462.3 764,464.9 743.1,474.6 743.3,472 	"/>
	<polygon class="st15" points="715.3,436.9 764.1,462.3 743.3,472 694.5,446.6 	"/>
	<polygon class="st35" points="743.3,472 743.1,474.6 694.3,449.2 694.5,446.6 	"/>
	<polygon class="st33" points="847.9,478.6 847.7,481.2 799.6,456.1 799.8,453.5 	"/>
	<polygon class="st33" points="737.7,474.6 737.6,477.2 688.8,451.8 688.9,449.2 	"/>
	<polygon class="st32" points="772,466.5 771.8,469 751,478.8 751.2,476.2 	"/>
	<polygon class="st32" points="771.9,463.6 771.8,466.3 745.4,478.6 745.5,476 	"/>
	<path class="st36" d="M689.5,446.8l26.4-12.3l56,29.2L745.5,476L689.5,446.8z M764.1,462.3l-48.8-25.5l-20.9,9.7l48.8,25.5
		L764.1,462.3"/>
	<polygon class="st33" points="745.5,476 745.4,478.6 689.4,449.4 689.5,446.8 	"/>
	<polygon class="st32" points="661.1,462.1 661,464.7 638.1,475.4 638.2,472.8 	"/>
	<polygon class="st35" points="825,489.3 824.8,491.9 776.7,466.8 776.9,464.2 	"/>
	<polygon class="st34" points="847.9,478.6 847.7,481.2 824.8,491.9 825,489.3 	"/>
	<path class="st36" d="M771.9,463.7l27.8-13l52.4,27.3L824.3,491L771.9,463.7z M847.9,478.6l-48.1-25.1l-22.9,10.7l48.1,25.1
		L847.9,478.6"/>
	<polygon class="st15" points="799.8,453.5 847.9,478.6 825,489.3 776.9,464.2 	"/>
	<polygon class="st32" points="852.1,478 851.9,480.6 824.2,493.6 824.3,491 	"/>
	<polygon class="st33" points="824.3,491 824.2,493.6 771.8,466.3 771.9,463.6 	"/>
	<polygon class="st34" points="737.7,474.6 737.6,477.2 715.3,487.6 715.5,485 	"/>
	<polygon class="st35" points="715.5,485 715.3,487.6 666.5,462.1 666.7,459.5 	"/>
	<polygon class="st15" points="688.9,449.2 737.7,474.6 715.5,485 666.7,459.5 	"/>
	<polygon class="st33" points="820.1,491.5 820,494.1 771.8,469 772,466.5 	"/>
	<polygon class="st33" points="710,487.6 709.8,490.2 661,464.7 661.1,462.1 	"/>
	<polygon class="st32" points="745.6,478.8 745.5,481.4 723.2,491.7 723.4,489.1 	"/>
	<path class="st36" d="M661.8,459.7l27.8-13l56,29.2l-27.8,13L661.8,459.7z M737.8,474.6l-48.8-25.5l-22.2,10.4l48.8,25.4
		L737.8,474.6"/>
	<polygon class="st33" points="717.8,488.9 717.6,491.5 661.6,462.3 661.8,459.7 	"/>
	<polygon class="st32" points="745.5,476 745.4,478.6 717.6,491.5 717.8,488.9 	"/>
	<polygon class="st33" points="689.3,502.2 689.1,504.8 633.1,475.6 633.3,473 	"/>
	<polygon class="st32" points="633.4,475.1 633.2,477.7 611,488 611.1,485.4 	"/>
	<polygon class="st35" points="799.3,501.3 799.1,503.9 751,478.8 751.2,476.2 	"/>
	<polygon class="st34" points="820.1,491.5 820,494.1 799.1,503.9 799.3,501.3 	"/>
	<path class="st36" d="M745.5,476l26.4-12.3l52.4,27.3l-26.4,12.3L745.5,476z M820.1,491.5L772,466.4l-20.8,9.7l48.1,25.1
		L820.1,491.5"/>
	<polygon class="st15" points="772,466.5 820.1,491.5 799.3,501.3 751.2,476.2 	"/>
	<polygon class="st33" points="797.9,503.3 797.8,505.9 745.4,478.6 745.5,476 	"/>
	<polygon class="st32" points="824.3,491 824.2,493.6 797.8,505.9 797.9,503.3 	"/>
	<polygon class="st33" points="793.7,503.8 793.6,506.4 745.5,481.4 745.6,478.8 	"/>
	<polygon class="st34" points="710,487.6 709.8,490.2 686.9,500.9 687,498.3 	"/>
	<polygon class="st35" points="687,498.3 686.9,500.9 638.1,475.4 638.2,472.8 	"/>
	<path class="st36" d="M633.3,473l28.5-13.3l56,29.2l-28.5,13.3L633.3,473z M709.9,487.6l-48.8-25.4l-22.9,10.7l48.8,25.5
		L709.9,487.6"/>
	<polygon class="st15" points="661.1,462.1 710,487.6 687,498.3 638.2,472.8 	"/>
	<polygon class="st33" points="682.2,500.5 682,503.1 633.2,477.7 633.4,475.1 	"/>
	<polygon class="st32" points="717.8,488.9 717.6,491.5 689.1,504.8 689.3,502.2 	"/>
	<polygon class="st34" points="793.7,503.8 793.6,506.4 771.3,516.8 771.5,514.2 	"/>
	<polygon class="st35" points="771.5,514.2 771.3,516.8 723.3,491.7 723.4,489.1 	"/>
	<path class="st36" d="M717.8,489l27.8-13l52.4,27.3l-27.8,13L717.8,489z M793.8,503.9l-48.1-25.1l-22.2,10.3l48.1,25.1L793.8,503.9
		"/>
	<polygon class="st15" points="745.6,478.8 793.7,503.8 771.5,514.2 723.4,489.1 	"/>
	<polygon class="st32" points="797.9,503.3 797.8,505.9 770,518.8 770.2,516.2 	"/>
	<polygon class="st33" points="770.2,516.2 770,518.8 717.6,491.5 717.8,488.9 	"/>
	<polygon class="st34" points="682.2,500.5 682,503.1 659.8,513.5 660,510.9 	"/>
	<polygon class="st15" points="633.4,475.1 682.2,500.5 660,510.9 611.1,485.4 	"/>
	<polygon class="st35" points="660,510.9 659.8,513.5 611,488 611.1,485.4 	"/>
	<polygon class="st32" points="689.3,502.2 689.1,504.8 662.1,517.4 662.2,514.8 	"/>
	<path class="st36" d="M606.2,485.6l27.1-12.7l56,29.2l-27.1,12.6L606.2,485.6z M682.2,500.5l-48.8-25.5l-22.2,10.4l48.8,25.5
		L682.2,500.5"/>
	<polygon class="st33" points="662.2,514.8 662.1,517.4 606.1,488.2 606.2,485.6 	"/>
</g>
<g>
	<polygon class="st32" points="717.8,491.7 717.7,494.3 694.8,505 694.9,502.4 	"/>
	<polygon class="st33" points="766,516.8 765.8,519.4 717.7,494.3 717.8,491.7 	"/>
	<polygon class="st15" points="717.8,491.7 766,516.8 743,527.5 694.9,502.4 	"/>
	<polygon class="st34" points="766,516.8 765.8,519.4 742.9,530.1 743,527.5 	"/>
	<polygon class="st35" points="743,527.5 742.9,530.1 694.8,505 694.9,502.4 	"/>
	<polygon class="st33" points="741.7,529.5 741.5,532.1 689.1,504.8 689.3,502.2 	"/>
	<polygon class="st32" points="770.2,516.2 770,518.8 741.5,532.1 741.7,529.5 	"/>
	<path class="st36" d="M689.3,502.2l28.5-13.2l52.4,27.3l-28.5,13.3L689.3,502.2z M765.9,516.8l-48.1-25.1l-22.9,10.7l48.1,25.1
		L765.9,516.8"/>
</g>
<g>
	<polygon class="st32" points="690.1,504.6 689.9,507.3 667.7,517.6 667.8,515 	"/>
	<polygon class="st33" points="738.2,529.7 738,532.3 689.9,507.3 690.1,504.6 	"/>
	<polygon class="st15" points="690.1,504.6 738.2,529.7 716,540.1 667.9,515 	"/>
	<polygon class="st34" points="738.2,529.7 738,532.3 715.8,542.7 716,540.1 	"/>
	<polygon class="st35" points="716,540.1 715.8,542.7 667.7,517.6 667.9,515 	"/>
	<polygon class="st33" points="714.6,542.1 714.5,544.8 662.1,517.4 662.2,514.8 	"/>
	<polygon class="st32" points="741.7,529.5 741.5,532.1 714.5,544.8 714.6,542.1 	"/>
	<path class="st36" d="M662.2,514.8l27.1-12.6l52.4,27.3l-27.1,12.6L662.2,514.8z M738.2,529.7l-48.1-25.1L667.9,515l48.1,25.1
		L738.2,529.7"/>
</g>
</svg>
