<svg width="679" height="134" viewBox="0 0 679 134" fill="none" xmlns="http://www.w3.org/2000/svg">
<g clip-path="url(#clip0_5_60)">
<g opacity="0.2">
<rect x="128" y="40" width="63" height="18" fill="#83BA3B"/>
</g>
<g opacity="0.2">
<rect x="128" y="59" width="63" height="18" fill="#83BA3B"/>
</g>
<g opacity="0.2">
<rect x="128" y="78" width="63" height="18" fill="#83BA3B"/>
</g>
<g opacity="0.2">
<rect x="128" y="97" width="63" height="18" fill="#83BA3B"/>
</g>
<g opacity="0.2">
<rect x="128" y="116" width="63" height="18" fill="#83BA3B"/>
</g>
<g opacity="0.2">
<rect x="104" y="134" width="47" height="23" transform="rotate(-90 104 134)" fill="#83BA3B"/>
</g>
<g opacity="0.2">
<rect x="40" y="116" width="63" height="18" fill="#83BA3B"/>
</g>
<g opacity="0.2">
<rect x="40" y="97" width="63" height="18" fill="#83BA3B"/>
</g>
<g opacity="0.2">
<rect x="40" y="78" width="63" height="18" fill="#83BA3B"/>
</g>
<g opacity="0.2">
<rect x="40" y="59" width="63" height="18" fill="#83BA3B"/>
</g>
<g opacity="0.2">
<rect x="40" y="40" width="63" height="18" fill="#83BA3B"/>
</g>
<g opacity="0.2">
<rect x="104" y="86" width="46" height="23" transform="rotate(-90 104 86)" fill="#83BA3B"/>
</g>
<rect x="216" y="40" width="123" height="94" fill="#4FBBE0"/>
<g opacity="0.2">
<rect x="365" y="40" width="123" height="94" fill="#4FBBE0"/>
</g>
<g opacity="0.2">
<rect x="586.848" y="40" width="52.1523" height="18" fill="#83BA3B"/>
</g>
<g opacity="0.2">
<rect x="586.848" y="59" width="52.1523" height="18" fill="#83BA3B"/>
</g>
<g opacity="0.2">
<rect x="586.848" y="78" width="52.1523" height="18" fill="#83BA3B"/>
</g>
<g opacity="0.2">
<rect x="586.848" y="97" width="52.1523" height="18" fill="#83BA3B"/>
</g>
<g opacity="0.2">
<rect x="586.848" y="116" width="52.1523" height="18" fill="#83BA3B"/>
</g>
<g opacity="0.2">
<rect x="567" y="134" width="47" height="19" transform="rotate(-90 567 134)" fill="#83BA3B"/>
</g>
<g opacity="0.2">
<rect x="514" y="116" width="52.1523" height="18" fill="#83BA3B"/>
</g>
<g opacity="0.2">
<rect x="514" y="97" width="52.1523" height="18" fill="#83BA3B"/>
</g>
<g opacity="0.2">
<rect x="514" y="78" width="52.1523" height="18" fill="#83BA3B"/>
</g>
<g opacity="0.2">
<rect x="514" y="59" width="52.1523" height="18" fill="#83BA3B"/>
</g>
<g opacity="0.2">
<rect x="514" y="40" width="52.1523" height="18" fill="#83BA3B"/>
</g>
<g opacity="0.2">
<rect x="566.98" y="86" width="46" height="19.0397" transform="rotate(-90 566.98 86)" fill="#83BA3B"/>
</g>
<rect y="30" width="30" height="104" fill="#D9D9D9"/>
<rect x="649" y="30" width="30" height="104" fill="#D9D9D9"/>
<rect x="679" y="3.05176e-05" width="30" height="679" transform="rotate(90 679 3.05176e-05)" fill="#D9D9D9"/>
</g>
<defs>
<clipPath id="clip0_5_60">
<rect width="679" height="134" fill="white"/>
</clipPath>
</defs>
</svg>
